<?xml version="1.0" standalone="no"?>
<!DOCTYPE svg PUBLIC "-//W3C//DTD SVG 1.1//EN" "http://www.w3.org/Graphics/SVG/1.1/DTD/svg11.dtd" >
<svg xmlns="http://www.w3.org/2000/svg">
<metadata></metadata>
<defs>
<font id="encode_sans_narrowregular" horiz-adv-x="1144" >
<font-face units-per-em="2048" ascent="1638" descent="-410" />
<missing-glyph horiz-adv-x="452" />
<glyph unicode="&#xfb01;" horiz-adv-x="1198" d="M31 956v150h211v63q0 139 22.5 231.5t76.5 149t146.5 82t231.5 31.5l8 -131q-96 -8 -156.5 -24.5t-96.5 -53.5t-49 -97.5t-13 -156.5v-94h264v-150h-264v-956h-172v956h-209zM858 1448q0 104 109 104t108 -104q1 -107 -108 -107t-109 107zM881 0v1106h172v-1106h-172z " />
<glyph unicode="&#xfb02;" horiz-adv-x="1200" d="M31 956v150h211v63q0 139 22.5 231.5t76.5 149t146.5 82t231.5 31.5l8 -131q-96 -8 -156.5 -24.5t-96.5 -53.5t-49 -97.5t-13 -156.5v-94h264v-150h-264v-956h-172v956h-209zM879 0v1655h172v-1655h-172z" />
<glyph unicode="&#xfb03;" horiz-adv-x="1898" d="M31 956v150h211v63q0 139 22.5 231.5t76.5 149t146.5 82t231.5 31.5l8 -131q-96 -8 -156.5 -24.5t-96.5 -53.5t-49 -97.5t-13 -156.5v-94h264v-150h-264v-956h-172v956h-209zM733 956v150h211v63q0 139 22.5 231.5t77 149t146.5 82t231 31.5l9 -131q-96 -8 -157 -24.5 t-96.5 -53.5t-49 -97.5t-13.5 -156.5v-94h264v-150h-264v-956h-172v956h-209zM1556 1448q0 104 109 104t109 -104q0 -107 -109 -107t-109 107zM1579 0v1106h172v-1106h-172z" />
<glyph unicode="&#xfb04;" horiz-adv-x="1900" d="M31 956v150h211v63q0 139 22.5 231.5t76.5 149t146.5 82t231.5 31.5l8 -131q-96 -8 -156.5 -24.5t-96.5 -53.5t-49 -97.5t-13 -156.5v-94h264v-150h-264v-956h-172v956h-209zM733 956v150h211v63q0 139 22.5 231.5t77 149t146.5 82t231 31.5l9 -131q-96 -8 -157 -24.5 t-96.5 -53.5t-49 -97.5t-13.5 -156.5v-94h264v-150h-264v-956h-172v956h-209zM1579 0v1655h172v-1655h-172z" />
<glyph horiz-adv-x="0" />
<glyph unicode="&#xd;" horiz-adv-x="587" />
<glyph horiz-adv-x="0" />
<glyph horiz-adv-x="0" />
<glyph unicode=" "  horiz-adv-x="452" />
<glyph unicode="&#x09;" horiz-adv-x="452" />
<glyph unicode="&#xa0;" horiz-adv-x="452" />
<glyph unicode="!" horiz-adv-x="495" d="M150 104q0 47 27.5 75t74.5 28q49 0 77.5 -27.5t28.5 -75.5q0 -47 -28.5 -74.5t-77.5 -27.5q-47 0 -74.5 27.5t-27.5 74.5zM160 1495v21h174v-21l-33 -1092v-26h-108v26z" />
<glyph unicode="&#x22;" horiz-adv-x="733" d="M131 983v672h150v-8l-60 -664h-90zM479 983v672h150v-8l-60 -664h-90z" />
<glyph unicode="#" horiz-adv-x="1110" d="M96 465v123h180l29 338h-209v125h219l37 465h131l-37 -465h248l39 465h131l-37 -465h185v-125h-195l-29 -338h224v-123h-234l-37 -465h-133l37 465h-248l-37 -465h-131l37 465h-170zM408 588h247l29 338h-248z" />
<glyph unicode="$" horiz-adv-x="1118" d="M84 41l6 152q49 -14 106.5 -26.5t114 -22t110.5 -14.5t101 -5q166 0 254 66.5t88 193.5q0 66 -23.5 113t-68.5 81.5t-107.5 61.5t-138.5 49q-109 33 -187.5 72t-130.5 90t-77 118.5t-25 157.5q0 166 103.5 273.5t286.5 134.5v281h157v-275q72 -4 152 -14t172 -33l-6 -147 q-96 23 -189.5 36t-165.5 13q-154 0 -241.5 -72t-87.5 -195q0 -55 18.5 -98t57 -76.5t101 -62.5t152.5 -55q98 -31 177 -68t134.5 -88t85 -120.5t29.5 -168.5q0 -172 -97 -276.5t-277 -130.5v-287h-158v276q-98 4 -213 20.5t-213 45.5z" />
<glyph unicode="%" horiz-adv-x="1871" d="M78 1055q0 240 89 360.5t263 120.5t263 -121t89 -360q0 -240 -89 -361t-263 -121t-263 121t-89 361zM215 1055q0 -182 52 -269.5t163 -87.5t163 87t52 270q0 358 -215 358t-215 -358zM532 0l648 1516h155l-649 -1516h-154zM1092 457q0 240 90 360.5t264 120.5 q172 0 261 -121t89 -360q0 -240 -89 -361t-261 -121q-174 0 -264 121t-90 361zM1229 457q0 -182 53 -269.5t164 -87.5q109 0 161 87t52 270q0 358 -213 358q-217 0 -217 -358z" />
<glyph unicode="&#x26;" horiz-adv-x="1404" d="M98 422q0 141 65.5 242.5t194.5 154.5q-59 74 -82.5 152t-23.5 172q0 195 115.5 297t332.5 102q80 0 166 -17.5t189 -56.5l2 -12l-31 -119h-12q-172 68 -301 68q-289 0 -289 -275q0 -72 22.5 -135t72.5 -123.5t129 -121t194 -125.5l225 -133q8 47 12 98t4 110v152h158 v-152q0 -84 -8 -155.5t-25 -134.5l166 -99v-14l-69 -123h-15l-139 86q-149 -283 -524 -283q-123 0 -221.5 31t-166 88.5t-104.5 139t-37 186.5zM272 430q0 -147 97.5 -232t265.5 -85q283 0 385 227l-256 158q-98 59 -175 113.5t-134 105.5q-182 -88 -183 -287z" />
<glyph unicode="'" horiz-adv-x="382" d="M131 983v672h150v-8l-60 -664h-90z" />
<glyph unicode="(" horiz-adv-x="593" d="M86 725q0 287 81 556t236 497h156v-9q-156 -223 -241 -490t-85 -554q0 -289 85 -555t241 -489v-9h-156q-156 227 -236.5 496.5t-80.5 556.5z" />
<glyph unicode=")" horiz-adv-x="591" d="M35 -319q156 223 239.5 489t83.5 555q0 287 -84 554t-239 490v9h153q156 -227 237 -496.5t81 -556.5t-81 -556t-237 -497h-153v9z" />
<glyph unicode="*" horiz-adv-x="1001" d="M88 1362l35 111l160 -50l192 -96l-33 215v164h119v-164l-35 -215l193 96l158 50l36 -111l-157 -51l-213 -33l151 -154l99 -135l-95 -69l-98 135l-100 196l-101 -196l-96 -135l-94 69l96 135l152 154l-213 33z" />
<glyph unicode="+" horiz-adv-x="993" d="M92 694v127h340v346h129v-346h342v-127h-342v-346h-129v346h-340z" />
<glyph unicode="," horiz-adv-x="452" d="M57 -297l93 502h178l-138 -522z" />
<glyph unicode="-" horiz-adv-x="854" d="M129 502v143h596v-143h-596z" />
<glyph unicode="." horiz-adv-x="458" d="M119 100q0 109 110 109q53 0 83 -27.5t30 -81.5q0 -106 -113 -106q-53 0 -81.5 26.5t-28.5 79.5z" />
<glyph unicode="/" horiz-adv-x="724" d="M63 -248l445 1764h154l-445 -1764h-154z" />
<glyph unicode="0" horiz-adv-x="1275" d="M104 756q0 387 135.5 583.5t397.5 196.5t397 -196.5t135 -583.5q0 -385 -135 -582t-397 -197t-397.5 196t-135.5 583zM279 756q0 -324 89 -476.5t269 -152.5t269 153.5t89 475.5q0 324 -89 477t-269 153t-269 -154.5t-89 -475.5z" />
<glyph unicode="1" horiz-adv-x="778" d="M41 1235l2 14l422 267h129v-1516h-176v1309h-6l-322 -172h-16z" />
<glyph unicode="2" horiz-adv-x="1050" d="M90 2v201q0 96 23.5 174t73 145.5t124 128t174.5 121.5q152 94 218.5 174t66.5 184q0 252 -293 252q-143 0 -325 -53l-23 150q113 29 205 41t176 12q434 0 434 -387q0 -78 -19.5 -140.5t-61.5 -120t-106.5 -110.5t-154.5 -108q-90 -57 -152.5 -108.5t-103.5 -101.5 t-59.5 -102.5t-18.5 -113.5v-90h678v-148h-856z" />
<glyph unicode="3" horiz-adv-x="1003" d="M102 1503q68 16 146 24.5t147 8.5q227 0 347 -102.5t120 -294.5q0 -135 -63.5 -226.5t-180.5 -126.5v-8q137 -31 211 -127t74 -248q0 -205 -133 -313t-381 -108q-70 0 -144.5 7t-138.5 21v137h13q47 -10 117.5 -18t130.5 -8q180 0 269 74.5t89 220.5q0 147 -88 220 t-281 73h-102v135h102q328 0 328 276q0 272 -307 273q-47 0 -112.5 -7.5t-141.5 -19.5h-14z" />
<glyph unicode="4" horiz-adv-x="1161" d="M43 459v12l506 1065h10l156 -23l6 -16l-490 -989v-8h502l49 520h123v-520h201v-140h-201v-360h-174v360h-651z" />
<glyph unicode="5" horiz-adv-x="1007" d="M102 6v144h37q125 -27 236 -27q184 0 275 76.5t91 246.5q0 82 -25.5 138.5t-80.5 91.5t-142 50t-208 17l-142 2l-14 15l55 756h672v-148h-534l-33 -483q166 -2 285.5 -25.5t196.5 -76t114 -136.5t37 -205t-38 -209t-106.5 -145t-167 -85t-219.5 -28q-68 0 -140.5 8.5 t-148.5 22.5z" />
<glyph unicode="6" horiz-adv-x="1187" d="M104 672q0 207 43 368.5t127 272t206 168t282 57.5q59 0 121.5 -8t134.5 -27l-14 -141q-70 18 -125.5 26.5t-112.5 8.5q-221 0 -343 -157t-142 -456q78 68 175 107t195 39q104 0 189.5 -31t146 -88t92 -139t31.5 -185q0 -117 -35 -211t-98.5 -160.5t-154 -102.5 t-201.5 -36q-256 0 -386.5 174.5t-130.5 520.5zM276 651q4 -274 87 -403t258 -129q145 0 229 98t84 268q0 154 -81.5 235t-231.5 81q-90 0 -182.5 -42t-162.5 -108z" />
<glyph unicode="7" horiz-adv-x="925" d="M49 1497l12 19h795l31 -95v-53l-506 -1370l-39 -27l-143 29v29l510 1333h-650z" />
<glyph unicode="8" horiz-adv-x="1179" d="M100 383q0 84 23.5 148.5t60.5 113.5t84 83t94 58q-98 51 -157.5 135.5t-59.5 227.5q0 92 33 164.5t91.5 122t141.5 75t185 25.5q201 0 319.5 -99.5t118.5 -289.5q0 -76 -18.5 -135.5t-50 -104.5t-72.5 -77.5t-84 -57.5q59 -25 109.5 -58.5t86 -77.5t56 -103.5 t20.5 -137.5q0 -193 -129 -298t-362 -105q-236 0 -363 100.5t-127 290.5zM266 399q0 -137 88 -207.5t236 -70.5q147 0 236 68.5t89 197.5q0 74 -24.5 124t-69.5 87t-108.5 62.5t-139.5 48.5l-75 22q-39 -18 -80 -45t-75 -65.5t-55.5 -93t-21.5 -128.5zM305 1141 q0 -72 25.5 -121t72 -85t109.5 -61.5t139 -46.5l15 -4q37 18 73.5 45t67.5 66t50.5 89t19.5 118q0 131 -79 196.5t-208 65.5t-207 -66.5t-78 -195.5z" />
<glyph unicode="9" horiz-adv-x="1187" d="M78 1028q0 117 34.5 211t98 160.5t154.5 102.5t202 36q256 0 386 -174t130 -520q0 -207 -43 -369t-127 -272.5t-205.5 -168t-281.5 -57.5q-59 0 -121.5 8.5t-134.5 26.5l14 142q70 -18 125.5 -26.5t112.5 -8.5q221 0 343 156.5t142 455.5q-78 -68 -175 -106.5t-195 -38.5 q-104 0 -189.5 30.5t-146 88t-92 139.5t-31.5 184zM254 1030q0 -154 81.5 -234.5t231.5 -80.5q90 0 182.5 42t161.5 107q-4 274 -87 403.5t-257 129.5q-145 0 -229 -98.5t-84 -268.5z" />
<glyph unicode=":" horiz-adv-x="475" d="M127 100q0 109 111 109q53 0 82.5 -27.5t29.5 -81.5q1 -106 -112 -106q-53 0 -82 26.5t-29 79.5zM127 1006q0 109 111 108q53 0 82.5 -27.5t29.5 -80.5q1 -107 -112 -107q-53 0 -82 26.5t-29 80.5z" />
<glyph unicode=";" horiz-adv-x="524" d="M98 -297l92 502h179l-138 -522zM164 1006q0 109 110 108q53 0 83 -27.5t30 -80.5q0 -107 -113 -107q-53 0 -81.5 26.5t-28.5 80.5z" />
<glyph unicode="&#x3c;" horiz-adv-x="1040" d="M88 690v119l817 360v-141l-643 -280l639 -279v-139z" />
<glyph unicode="=" horiz-adv-x="1060" d="M135 442v131h793v-131h-793zM135 883v129h793v-129h-793z" />
<glyph unicode="&#x3e;" horiz-adv-x="1040" d="M135 1028v141l817 -360v-119l-813 -360v139l637 279z" />
<glyph unicode="?" horiz-adv-x="884" d="M63 1483q72 23 155 38t169 15q84 0 162 -20.5t137 -68.5t95 -125t36 -187q0 -104 -36 -178t-94 -125.5t-130 -81t-143 -48.5l-4 -296v-39h-125v39l-13 387q63 14 131 37.5t123.5 60.5t91 93t35.5 138q0 78 -24.5 130.5t-65.5 84t-93 45t-108 13.5q-72 0 -142 -13.5 t-136 -33.5zM248 98q0 47 26.5 75t75.5 28t78 -28t29 -75t-29 -74.5t-78 -27.5t-75.5 27.5t-26.5 74.5z" />
<glyph unicode="@" horiz-adv-x="1742" d="M96 535q0 203 57.5 360.5t162 266t253 164.5t330.5 56q184 0 322.5 -52t228.5 -150.5t135 -238.5t45 -314q0 -244 -89 -382.5t-265 -138.5q-96 0 -152.5 46.5t-66.5 138.5h-10q-57 -86 -148.5 -129t-173.5 -43q-70 0 -121 26.5t-85 74.5t-51 112.5t-17 140.5 q0 117 34.5 215t99 170t155.5 112t204 40q127 0 297 -68l-76 -430q-8 -41 -14 -79t-6 -73q0 -68 29.5 -106.5t105.5 -38.5q111 0 169 108.5t58 303.5q0 150 -36.5 268.5t-111.5 200.5t-189.5 126t-270.5 44q-154 0 -279.5 -48.5t-215 -142.5t-138.5 -230t-49 -310 q0 -182 48 -313.5t133 -216.5t200 -126t248 -41q88 0 187.5 18.5t203.5 51.5l41 -109q-115 -35 -224.5 -56.5t-207.5 -21.5q-158 0 -294 48.5t-237.5 147.5t-160 253t-58.5 365zM571 473q0 -104 40 -175t132 -71q45 0 94.5 18.5t92.5 55.5t75.5 94.5t47.5 136.5l57 340 q-92 31 -166 31q-84 0 -152.5 -32.5t-117.5 -90t-76 -136.5t-27 -171z" />
<glyph unicode="A" horiz-adv-x="1306" d="M14 0v12l510 1504h258l510 -1504v-12h-170l-155 455h-629l-154 -455h-170zM383 602h541l-181 524l-81 252h-17l-84 -252z" />
<glyph unicode="B" horiz-adv-x="1286" d="M172 10v1497q141 14 239.5 20.5t192.5 6.5q285 0 415 -97.5t130 -312.5q0 -139 -66.5 -230t-183.5 -116v-8q143 -27 220 -122t77 -249q0 -419 -569 -419q-106 0 -226 8t-229 22zM338 135q41 -10 120 -15t175 -5q387 2 387 295q0 152 -91 221t-292 69h-299v-565zM338 834 h291q186 0 264 64.5t78 217.5q0 150 -83 215.5t-274 65.5q-84 0 -148.5 -3t-127.5 -14v-546z" />
<glyph unicode="C" horiz-adv-x="1136" d="M98 756q0 401 164 589.5t500 188.5q63 0 142 -7t159 -24v-147q-157 28 -273 28h-8q-133 0 -228 -35.5t-156.5 -111.5t-90 -194.5t-28.5 -286.5q0 -328 117.5 -476.5t373.5 -148.5q27 0 65.5 2t79.5 7t80 11.5t68 12.5v-146q-61 -16 -143 -26t-156 -10q-338 2 -502 190 t-164 584z" />
<glyph unicode="D" horiz-adv-x="1394" d="M172 -2v1509q104 12 209.5 19.5t181.5 7.5q381 0 557 -187.5t176 -588.5q0 -205 -45 -353.5t-140 -243.5t-243.5 -141.5t-353.5 -46.5q-100 0 -190.5 6.5t-151.5 18.5zM344 139q66 -10 115 -13t104 -3q287 0 421 150.5t134 484.5q0 332 -128 480t-410 148q-53 0 -116 -4 t-120 -12v-1231z" />
<glyph unicode="E" horiz-adv-x="1187" d="M172 0v1516h905v-148h-731v-526h674v-148h-674v-547h750v-147h-924z" />
<glyph unicode="F" horiz-adv-x="1126" d="M172 0v1516h889v-148h-715v-541h653v-147h-653v-680h-174z" />
<glyph unicode="G" horiz-adv-x="1284" d="M98 756q0 399 171 588.5t528 189.5q78 0 170 -10.5t182 -32.5v-150q-109 23 -187.5 33t-150.5 10q-141 0 -241.5 -35.5t-165 -112.5t-95 -195.5t-30.5 -284.5q0 -326 119.5 -475.5t381.5 -149.5q41 0 99.5 5t115.5 14v620h164v-737q-102 -25 -202.5 -38t-182.5 -13 q-344 2 -510 191t-166 583z" />
<glyph unicode="H" horiz-adv-x="1474" d="M172 0v1516h174v-666h782v666h175v-1516h-175v702h-782v-702h-174z" />
<glyph unicode="I" horiz-adv-x="516" d="M172 0v1516h174v-1516h-174z" />
<glyph unicode="J" horiz-adv-x="516" d="M10 -328q49 102 81 187.5t50.5 166t26.5 165.5t8 190v1135h174v-1147q0 -100 -12 -190.5t-38 -179.5t-68 -182t-103 -202z" />
<glyph unicode="K" horiz-adv-x="1296" d="M172 0v1516h174v-670h250l455 670h200l-467 -680l-67 -52v-12l74 -49l497 -723h-198l-482 696h-262v-696h-174z" />
<glyph unicode="L" horiz-adv-x="1003" d="M172 0v1516h174v-1369h631v-147h-805z" />
<glyph unicode="M" horiz-adv-x="1814" d="M172 0v1516h238l385 -967l104 -287h14l105 287l385 967h239v-1516h-161v1274l-13 2l-137 -356l-344 -857h-162l-344 857l-137 356l-12 -2v-1274h-160z" />
<glyph unicode="N" horiz-adv-x="1511" d="M172 0v1516h154l733 -1059l110 -178h13v1237h159v-1516h-155l-735 1057l-109 178h-12v-1235h-158z" />
<glyph unicode="O" horiz-adv-x="1439" d="M98 756q0 389 158 584.5t463 195.5t462.5 -196.5t157.5 -583.5t-157.5 -581.5t-462.5 -194.5t-463 194.5t-158 581.5zM276 756q0 -324 108 -475.5t335 -151.5t334.5 151.5t107.5 475.5t-108.5 477t-333.5 153t-334 -152.5t-109 -477.5z" />
<glyph unicode="P" horiz-adv-x="1241" d="M172 0v1505q96 16 184 24.5t174 8.5q336 0 491 -126t155 -398t-155 -398.5t-489 -126.5q-45 0 -90 2.5t-96 6.5v-498h-174zM346 651q37 -6 97.5 -11t113.5 -5q236 0 338 88t102 291q0 199 -102 288t-336 89q-51 0 -108.5 -5.5t-104.5 -11.5v-723z" />
<glyph unicode="Q" horiz-adv-x="1433" d="M94 756q0 385 158 582.5t463 197.5t463.5 -197.5t158.5 -582.5q0 -356 -148.5 -543.5t-430.5 -192.5v-14q74 -18 141.5 -32.5t135 -25.5t139 -19.5t151.5 -14.5l-47 -152q-334 57 -560 132t-364.5 187t-199 274.5t-60.5 400.5zM270 756q0 -324 110 -475.5t335 -151.5 q223 0 333.5 153.5t110.5 473.5q0 324 -109.5 478.5t-334.5 154.5t-335 -155t-110 -478z" />
<glyph unicode="R" horiz-adv-x="1277" d="M172 0v1505q92 16 182 24.5t176 8.5q338 0 492 -117.5t154 -373.5q0 -180 -76 -290t-236 -159l350 -598h-190l-319 565q-39 -4 -80 -6t-86 -2q-41 0 -93.5 3t-99.5 7v-567h-174zM346 717q35 -6 93.5 -11.5t117.5 -5.5q119 0 202 19.5t136 60.5t77.5 107.5t24.5 159.5 q0 182 -102 263t-336 81q-47 0 -105.5 -5.5t-107.5 -11.5v-657z" />
<glyph unicode="S" horiz-adv-x="1114" d="M82 41l6 152q49 -14 106.5 -26.5t114 -22t110.5 -14.5t101 -5q166 0 254 66.5t88 193.5q0 66 -23.5 113t-68.5 81.5t-107.5 61.5t-138.5 49q-109 33 -187.5 72t-130.5 90t-77 118.5t-25 157.5q0 94 35 171t100.5 131.5t156.5 84t206 29.5q82 0 173 -11t200 -38l-6 -147 q-96 23 -189.5 36t-165.5 13q-154 0 -241.5 -72t-87.5 -195q0 -55 18.5 -98t57 -76.5t101 -62.5t152.5 -55q98 -31 177 -68t134.5 -88t85 -120.5t29.5 -168.5q0 -201 -131.5 -309.5t-373.5 -108.5q-49 0 -106.5 5.5t-117 13.5t-119 20.5t-110.5 26.5z" />
<glyph unicode="T" d="M33 1366v150h1079v-150h-453v-1366h-176v1366h-450z" />
<glyph unicode="U" horiz-adv-x="1464" d="M158 606v910h174v-906q0 -256 98 -367.5t301 -111.5q205 0 303.5 111.5t98.5 367.5v906h174v-910q0 -164 -33 -282.5t-102.5 -195.5t-178 -112.5t-262.5 -35.5t-262.5 35.5t-177 112.5t-101 195.5t-32.5 282.5z" />
<glyph unicode="V" horiz-adv-x="1310" d="M14 1516h181l364 -1059l90 -285h15l92 285l364 1059h178l-524 -1516h-235z" />
<glyph unicode="W" horiz-adv-x="1980" d="M35 1516h186l254 -1041l64 -274h14l70 274l278 1041h186l269 -1041l67 -274h15l65 274l264 1041h185l-406 -1516h-227l-268 1016l-52 260h-12l-55 -260l-277 -1016h-227z" />
<glyph unicode="X" horiz-adv-x="1298" d="M10 0l527 776l-502 740h201l385 -580l24 -47h12l25 47l385 580h197l-506 -744l532 -772h-198l-416 616l-25 43h-12l-21 -43l-411 -616h-197z" />
<glyph unicode="Y" horiz-adv-x="1236" d="M4 1516h191l360 -709l55 -129h17l53 129l362 709h189l-524 -1004v-512h-175v508z" />
<glyph unicode="Z" horiz-adv-x="1126" d="M66 0v135l761 1217v12h-741v152h954v-134l-764 -1220v-10h785v-152h-995z" />
<glyph unicode="[" horiz-adv-x="641" d="M168 -328v2106h412v-127h-269v-1852h269v-127h-412z" />
<glyph unicode="\" horiz-adv-x="718" d="M63 1516h148l444 -1762h-147z" />
<glyph unicode="]" horiz-adv-x="638" d="M61 -201h269v1852h-269v127h410v-2106h-410v127z" />
<glyph unicode="^" horiz-adv-x="897" d="M88 985l289 631h141l291 -631h-129l-227 500h-9l-227 -500h-129z" />
<glyph unicode="_" horiz-adv-x="1140" d="M100 -123h942v-139h-942v139z" />
<glyph unicode="`" horiz-adv-x="505" d="M70 1647h184l143 -371l-125 -21z" />
<glyph unicode="a" horiz-adv-x="1032" d="M74 281q0 158 98 241.5t309 100.5l242 18v90q0 72 -12.5 120t-43 77.5t-79.5 42t-123 12.5q-63 0 -142 -9t-163 -26l-15 135q98 16 185.5 25.5t167.5 9.5q205 0 301 -86t96 -268v-764h-141l-19 137h-12q-88 -66 -179.5 -106.5t-185.5 -40.5q-137 0 -210.5 75.5 t-73.5 215.5zM248 295q0 -170 170 -170q37 0 75.5 10t78.5 27.5t78 40t73 45.5v280l-197 -18q-154 -16 -216 -63.5t-62 -151.5z" />
<glyph unicode="b" horiz-adv-x="1155" d="M143 29v1626h172v-668q57 66 140.5 102.5t187.5 36.5q207 0 314.5 -137t107.5 -420q0 -270 -131 -427.5t-395 -161.5q-88 0 -184.5 11t-211.5 38zM315 131q49 -10 108 -16t118 -6q176 0 262 105t86 343q0 229 -69.5 329.5t-221.5 100.5q-55 0 -106.5 -16.5t-90.5 -47 t-62.5 -74.5t-23.5 -99v-619z" />
<glyph unicode="c" horiz-adv-x="909" d="M90 553q0 573 502 573q53 0 114.5 -7t120.5 -21v-146q-115 25 -219 25q-176 0 -259 -102.5t-83 -321.5q0 -223 81 -324.5t259 -101.5q55 0 106.5 6t114.5 19v-142q-47 -14 -111.5 -22t-123.5 -8q-502 0 -502 573z" />
<glyph unicode="d" horiz-adv-x="1157" d="M90 543q0 291 140.5 437t379.5 146q61 0 117.5 -6t112.5 -14v549h172v-1655h-152l-14 127h-10q-111 -147 -320 -147q-211 0 -318.5 137t-107.5 426zM266 553q0 -229 72 -332.5t219 -103.5q55 0 106.5 16.5t90.5 49t62.5 77.5t23.5 105v606q-108 22 -224 22h-10 q-170 0 -255 -103.5t-85 -336.5z" />
<glyph unicode="e" horiz-adv-x="1048" d="M92 537q0 287 121 437t352 150q397 0 398 -489q0 -47 -3.5 -82t-7.5 -64h-688q10 -193 89 -280.5t241 -87.5q74 0 154.5 15.5t162.5 45.5l11 -135q-74 -31 -166 -48t-178 -17q-240 0 -363 141t-123 414zM264 614h541q-6 201 -62.5 288t-181.5 87q-276 0 -297 -375z" />
<glyph unicode="f" horiz-adv-x="706" d="M33 956v150h211v63q0 139 22.5 231.5t76.5 149t146.5 82t231.5 31.5l8 -131q-96 -8 -156.5 -24.5t-96.5 -53.5t-49 -97.5t-13 -156.5v-94h264v-150h-264v-956h-172v956h-209z" />
<glyph unicode="g" horiz-adv-x="1155" d="M90 547q0 287 140.5 433t379.5 146q94 0 192.5 -12t209.5 -45v-952q0 -160 -37 -268.5t-103.5 -175t-158.5 -95.5t-203 -29q-88 0 -176 13.5t-162 36.5l14 137q74 -23 151 -35t155 -12q82 0 148.5 20.5t112.5 66.5t70.5 121.5t24.5 186.5v63h-10q-109 -147 -320 -147 t-319.5 133t-108.5 414zM266 559q0 -223 72 -324.5t219 -101.5q55 0 106.5 16.5t90.5 48t62.5 76.5t23.5 103v594q-55 10 -112.5 16t-119.5 6q-170 0 -256 -102.5t-86 -331.5z" />
<glyph unicode="h" horiz-adv-x="1155" d="M145 0v1655h172v-672q139 74 238.5 108.5t187.5 34.5q135 0 204 -72.5t69 -226.5v-827h-172v774q0 111 -39 158t-125 47q-74 0 -166 -32t-197 -87v-860h-172z" />
<glyph unicode="i" horiz-adv-x="466" d="M233 1552q109 0 109 -104q0 -107 -109 -107q-108 0 -108 105q0 106 108 106zM147 0v1106h172v-1106h-172z" />
<glyph unicode="j" horiz-adv-x="462" d="M10 -406q72 143 104.5 297t32.5 359v856h170v-930q0 -166 -50 -327.5t-136 -299.5zM229 1552q109 0 109 -104q0 -107 -109 -107q-108 0 -108 105q0 106 108 106z" />
<glyph unicode="k" horiz-adv-x="1058" d="M145 0v1655h172v-1024h172l347 475h192l-387 -518l-35 -19v-6l37 -18l418 -545h-193l-383 506h-168v-506h-172z" />
<glyph unicode="l" horiz-adv-x="471" d="M150 0v1655h172v-1655h-172z" />
<glyph unicode="m" horiz-adv-x="1746" d="M145 0v1106h142l12 -125h8q123 76 211 110.5t172 34.5q195 0 248 -149h10q123 80 213 114.5t174 34.5q135 0 204 -72.5t69 -226.5v-827h-170v774q0 111 -40 157t-126 46q-63 0 -141 -29.5t-168 -83.5v-864h-170v774q0 111 -40 157t-126 46q-66 0 -146 -31t-166 -84v-862 h-170z" />
<glyph unicode="n" horiz-adv-x="1155" d="M145 0v1106h144l12 -125h10q72 39 132.5 66.5t111.5 45t97 25.5t91 8q135 0 204 -72.5t69 -226.5v-827h-172v774q0 111 -39 158t-125 47q-74 0 -167 -32t-196 -87v-860h-172z" />
<glyph unicode="o" d="M90 553q0 281 124 427t359 146q236 0 359 -146t123 -427t-123 -426t-359 -145t-359.5 145t-123.5 426zM264 553q0 -225 74.5 -328.5t234.5 -103.5t234 102.5t74 329.5t-74 329.5t-234 102.5t-234.5 -102.5t-74.5 -329.5z" />
<glyph unicode="p" horiz-adv-x="1157" d="M145 -451v1557h152l12 -123h13q53 68 135 105.5t186 37.5q209 0 316.5 -137t107.5 -420q0 -135 -34 -244.5t-99.5 -186.5t-163.5 -117.5t-227 -40.5q-59 0 -117.5 6t-108.5 12v-449h-172zM317 133q49 -10 110 -16t120 -6q174 0 259 105.5t85 342.5q0 229 -69.5 329.5 t-221.5 100.5q-55 0 -106.5 -16.5t-90 -48t-62.5 -77.5t-24 -104v-610z" />
<glyph unicode="q" horiz-adv-x="1155" d="M90 543q0 285 135 434t389 149q104 0 209 -12t189 -31v-1534h-168v578q-119 -147 -328 -147q-426 0 -426 563zM264 555q0 -229 69.5 -333.5t223.5 -104.5q59 0 110.5 17.5t90.5 50t60.5 78.5t21.5 104v606q-70 10 -125.5 15t-106.5 5q-178 0 -261 -104.5t-83 -333.5z" />
<glyph unicode="r" horiz-adv-x="749" d="M145 0v1106h144l12 -145h10q90 53 182.5 99t180.5 64h51v-168h-63q-90 -12 -179.5 -44.5t-165.5 -77.5v-834h-172z" />
<glyph unicode="s" horiz-adv-x="897" d="M88 25v139q88 -23 173 -37t161 -14q113 0 172 48t59 134q0 92 -56 133t-157 64q-57 12 -117.5 27.5t-110.5 48t-82 91t-32 156.5q0 147 101.5 232.5t279.5 85.5q33 0 63.5 -2.5t65.5 -7.5t77 -12t95 -17l-6 -142q-96 20 -159.5 30.5t-116.5 10.5q-113 0 -173.5 -45 t-60.5 -129q0 -49 18.5 -81.5t49 -53t74 -33t92.5 -22.5q70 -16 128 -38t101 -58.5t67.5 -92t24.5 -137.5q0 -152 -102.5 -239t-286.5 -87q-70 0 -148.5 11.5t-193.5 36.5z" />
<glyph unicode="t" horiz-adv-x="770" d="M31 954v152h227l25 276l137 21v-297h311v-152h-311v-628q0 -201 182 -201q29 0 63.5 5t69.5 15v-137q-94 -22 -180 -22q-305 0 -305 305v663h-219z" />
<glyph unicode="u" horiz-adv-x="1153" d="M137 279v827h172v-778q0 -109 36 -153t126 -44q88 0 178 36t187 89v850h172v-1106h-144l-12 129h-8q-76 -39 -132.5 -67.5t-105.5 -47t-95 -26.5t-99 -8q-274 0 -275 299z" />
<glyph unicode="v" horiz-adv-x="1075" d="M33 1087v19h178l276 -813l41 -148h21l41 148l278 813h174v-19l-393 -1087h-223z" />
<glyph unicode="w" horiz-adv-x="1544" d="M45 1094v12h166l186 -760l33 -162h14l39 162l205 760h168l209 -760l41 -162h14l35 162l178 760h164v-12l-280 -1094h-197l-211 754l-31 135h-14l-29 -135l-207 -754h-194z" />
<glyph unicode="x" horiz-adv-x="1071" d="M25 0v20l393 553l-373 519v14h184l244 -352l59 -88h11l57 88l242 352h184v-14l-373 -527l394 -545v-20h-181l-264 381l-63 94h-13l-61 -94l-258 -381h-182z" />
<glyph unicode="y" horiz-adv-x="1089" d="M29 1087v19h180l287 -772l43 -146h10l43 146l295 772h176v-19l-604 -1538l-162 31v17l160 409z" />
<glyph unicode="z" horiz-adv-x="942" d="M72 2v113l565 837v11h-547v143h762v-111l-563 -839v-13h583v-141h-800z" />
<glyph unicode="{" horiz-adv-x="714" d="M59 662v139q74 0 114 54t40 159v522q0 135 48 188.5t171 53.5q20 0 53 -1t67 -3t61.5 -3.5t35.5 -3.5v-116h-188q-55 0 -79 -21.5t-24 -75.5v-575q0 -94 -38.5 -162.5t-104.5 -87.5q66 -16 104.5 -85t38.5 -161v-577q0 -53 24 -76t79 -23h188v-116q-8 -2 -35.5 -4 t-60.5 -3t-65.5 -2t-53.5 -1q-123 0 -172 53t-49 188v529q0 104 -40 157.5t-114 53.5z" />
<glyph unicode="|" horiz-adv-x="499" d="M168 -451v2106h164v-2106h-164z" />
<glyph unicode="}" horiz-adv-x="714" d="M68 -193h186q57 0 79.5 23t22.5 76v577q0 92 39 161t107 85q-68 18 -107 87t-39 163v575q0 53 -22.5 75t-79.5 22h-186v116q8 2 35.5 3.5t60.5 3.5t65.5 3t53.5 1q123 0 172 -53.5t49 -188.5v-522q0 -213 153 -213v-139q-154 0 -153 -211v-529q0 -135 -49 -188t-174 -53 q-18 0 -51 1l-66 2t-60.5 3t-35.5 4v116z" />
<glyph unicode="~" horiz-adv-x="1230" d="M119 582q51 59 92 98t78 62.5t72.5 32.5t76.5 9q57 0 102.5 -23.5t85.5 -53t79.5 -53t87.5 -23.5q59 0 118.5 39t89.5 102l111 -61q-23 -41 -55.5 -81t-72.5 -71t-85 -50.5t-94 -19.5q-61 0 -109.5 25t-89.5 53.5t-77.5 53t-77.5 24.5q-57 0 -109.5 -32.5t-122.5 -110.5z " />
<glyph unicode="&#xa1;" horiz-adv-x="464" d="M135 1001q0 47 28 75t75 28q49 0 77.5 -27.5t28.5 -75.5q0 -47 -28.5 -74.5t-77.5 -27.5q-47 0 -75 27.5t-28 74.5zM145 -389l33 1091v27h109v-27l32 -1091v-21h-174v21z" />
<glyph unicode="&#xa2;" horiz-adv-x="946" d="M92 553q0 520 418 567v234h123v-230q47 -2 97 -9t99 -17v-146q-115 25 -219 25q-176 0 -259 -102.5t-83 -321.5q0 -223 81 -324.5t259 -101.5q55 0 106.5 6t114.5 19v-142q-39 -10 -91 -18t-105 -10v-228h-123v230q-418 43 -418 569z" />
<glyph unicode="&#xa3;" horiz-adv-x="1224" d="M94 0v156h281v528h-281v141h281v252q0 229 99 340t325 111q139 0 336 -58l-19 -143q-84 25 -160.5 37t-136.5 12q-147 0 -208.5 -68.5t-61.5 -232.5v-250h405v-141h-405v-530h557v-154h-1012z" />
<glyph unicode="&#xa4;" horiz-adv-x="1210" d="M109 350l110 111l100 71q-57 96 -57 226q0 133 60 223l-103 74l-110 110l88 88l112 -110l66 -96q45 41 103.5 62t127.5 21q135 0 225 -83l70 96l113 110l86 -88l-111 -110l-104 -74q29 -47 44 -102.5t15 -120.5q0 -66 -15.5 -122t-43.5 -101l104 -74l111 -111l-86 -88 l-113 111l-67 94q-45 -41 -102.5 -62.5t-125.5 -21.5q-141 0 -231 84l-66 -94l-112 -111zM385 758q0 -125 60.5 -193.5t160.5 -68.5q98 0 157.5 67.5t59.5 194.5q0 125 -58 192.5t-159 67.5q-100 0 -160.5 -66.5t-60.5 -193.5z" />
<glyph unicode="&#xa5;" horiz-adv-x="1335" d="M59 1516h191l360 -709l56 -129h16l53 129l363 709h188l-463 -887h289v-123h-350v-180h350v-123h-350v-203h-174v203h-387v123h387v180h-387v123h323z" />
<glyph unicode="&#xa6;" horiz-adv-x="491" d="M164 416h164v-867h-164v867zM164 788v867h164v-867h-164z" />
<glyph unicode="&#xa7;" horiz-adv-x="954" d="M113 25v133q182 -47 336 -47q111 0 170 48t59 136q0 92 -56.5 133t-154.5 64q-57 12 -117.5 27.5t-111 48t-82 91t-31.5 156.5q0 66 20.5 117t55.5 90q-35 35 -55.5 85t-20.5 128q0 147 101.5 230t279.5 83q31 0 61.5 -2t65.5 -6t77 -11t95 -18l-6 -139q-96 23 -158.5 32 t-116.5 9q-113 0 -173 -45t-60 -131q0 -49 18.5 -82t49 -53.5t73.5 -32.5t92 -22q70 -16 128.5 -38t101.5 -59t67.5 -92t24.5 -137q0 -125 -74 -211q35 -35 54.5 -85t19.5 -122q0 -152 -103.5 -239t-285.5 -87q-70 0 -149 11.5t-195 36.5zM289 825q0 -53 16.5 -85.5t46 -55 t67.5 -36t81 -25.5q35 -10 71.5 -22t65.5 -28q45 55 45 134q0 96 -51 140t-142 66q-35 10 -73.5 19.5t-67.5 23.5q-59 -47 -59 -131z" />
<glyph unicode="&#xa8;" horiz-adv-x="925" d="M121 1415q0 96 100 96q102 0 103 -96q-1 -100 -103 -100q-100 0 -100 100zM573 1415q0 96 101 96q100 0 100 -96q0 -100 -100 -100t-101 100z" />
<glyph unicode="&#xa9;" horiz-adv-x="1716" d="M96 758q0 174 54.5 318.5t155 246.5t240.5 158.5t312 56.5t311.5 -56.5t239.5 -158.5t154.5 -246.5t54.5 -318.5q0 -176 -54.5 -319.5t-154.5 -246t-239.5 -159t-311.5 -56.5t-312 56.5t-240.5 159t-155 246t-54.5 319.5zM209 758q0 -152 46 -276t130 -212t205 -136 t268 -48t268 48t205 136t130 212t46 276t-46 276.5t-130 212.5t-204.5 136.5t-268.5 48.5q-147 0 -268 -48.5t-205 -136.5t-130 -213t-46 -276zM512 750q0 213 101.5 318.5t275.5 105.5q47 0 91 -5.5t85 -15.5v-111q-41 8 -83 13.5t-81 5.5q-129 0 -196.5 -76t-67.5 -233 q0 -160 69.5 -233t192.5 -73q37 0 80 5.5t90 13.5v-109q-84 -22 -180 -22q-174 0 -275.5 103.5t-101.5 312.5z" />
<glyph unicode="&#xaa;" horiz-adv-x="858" d="M88 930q0 104 77 166.5t226 74.5l191 15v59q0 94 -39 129t-150 35q-37 0 -91 -4t-132 -16l-14 112q86 14 151.5 20.5t114.5 6.5q164 0 234.5 -60.5t70.5 -193.5v-553h-123l-10 96h-8q-78 -53 -144 -78.5t-127 -25.5q-102 0 -164.5 59t-62.5 158zM233 942q0 -117 125 -117 q45 0 95.5 16.5t128.5 57.5v188l-101 -6q-141 -10 -194.5 -40.5t-53.5 -98.5z" />
<glyph unicode="&#xab;" d="M70 549v8l309 487h180l-309 -487v-8l309 -488h-180zM567 549v8l310 487h180l-309 -487v-8l309 -488h-180z" />
<glyph unicode="&#xac;" horiz-adv-x="1591" d="M123 727v147h1325v-643h-168v496h-1157z" />
<glyph unicode="&#xad;" horiz-adv-x="854" d="M129 502v143h596v-143h-596z" />
<glyph unicode="&#xae;" horiz-adv-x="1462" d="M102 913q0 137 46.5 252t129 199t198.5 131t253 47t254 -47t200 -131t130 -198.5t47 -252.5q0 -137 -47 -251.5t-130 -197.5t-200 -130t-254 -47t-253 47t-198.5 130t-129 197.5t-46.5 251.5zM201 913q0 -117 39 -215t108.5 -168.5t166.5 -109.5t214 -39q119 0 216 39 t168 109.5t110 169t39 214.5q0 117 -39 215.5t-110 169t-168 110.5t-216 40q-117 0 -214 -40t-166.5 -110.5t-108.5 -169t-39 -215.5zM502 582v684q53 6 102 10t90 4q311 0 312 -219q0 -78 -38 -128t-110 -73l-2 -6l172 -272h-108l-156 254h-166v-254h-96zM598 922 q16 -2 46.5 -2h55.5q205 0 205 139q0 72 -46 105.5t-154 33.5q-20 0 -49 -1t-58 -5v-270z" />
<glyph unicode="&#xaf;" horiz-adv-x="888" d="M119 1323v127h622v-127h-622z" />
<glyph unicode="&#xb0;" horiz-adv-x="894" d="M86 1149q0 82 27.5 151.5t76 121t115 80t144.5 28.5t143 -28.5t113.5 -80t75 -121t26.5 -151.5t-26.5 -152.5t-75 -122t-113.5 -80t-143 -28.5t-144.5 28.5t-115 80t-76 122t-27.5 152.5zM203 1149q0 -121 65.5 -196.5t180.5 -75.5q113 0 177 75.5t64 196.5 q0 119 -64.5 194.5t-176.5 75.5q-115 0 -180.5 -75.5t-65.5 -194.5z" />
<glyph unicode="&#xb1;" horiz-adv-x="1077" d="M139 184v129h799v-129h-799zM139 813v127h334v348h127v-348h336v-127h-336v-342h-127v342h-334z" />
<glyph unicode="&#xb2;" horiz-adv-x="823" d="M76 616v158q0 68 16.5 124t53 107.5t94 99.5t137.5 95q117 68 162 122t45 120q0 168 -207 168q-51 0 -111.5 -9.5t-140.5 -27.5l-21 131q88 23 160 32t137 9q334 0 334 -291q0 -109 -59.5 -189.5t-196.5 -162.5q-125 -78 -177 -145.5t-52 -151.5v-57h487v-132h-661z" />
<glyph unicode="&#xb3;" horiz-adv-x="784" d="M86 1722q53 12 113.5 19.5t113.5 7.5q176 0 267.5 -78t91.5 -223q0 -92 -43 -158.5t-123 -95.5q193 -61 192 -279q0 -152 -98.5 -233.5t-284.5 -81.5q-57 0 -116.5 7t-108.5 18v131h16q35 -8 89.5 -13.5t97.5 -5.5q129 0 192.5 50.5t63.5 144.5q0 98 -64.5 146t-199.5 48 h-86v119h86q233 0 233 187q0 182 -219 182q-72 0 -190 -23h-17z" />
<glyph unicode="&#xb4;" horiz-adv-x="489" d="M90 1262l146 378h178l-201 -391z" />
<glyph unicode="&#xb5;" horiz-adv-x="1208" d="M166 -451v1557h170v-778q0 -205 164 -205q84 0 170 32.5t194 88.5v862h172v-1106h-145l-12 129h-9q-74 -41 -131 -68.5t-106 -46t-95 -26.5t-100 -8q-61 0 -102 14v-445h-170z" />
<glyph unicode="&#xb6;" d="M76 1034q0 137 31.5 231.5t90 152t141.5 83t185 25.5q47 0 91 -5t98 -16v-1505h-105v545q-20 -2 -44.5 -2h-45.5q-100 0 -182 25.5t-139.5 83t-89 151.5t-31.5 231zM831 0v1505h125v-1505h-125z" />
<glyph unicode="&#xb7;" horiz-adv-x="464" d="M121 758q0 59 27.5 84.5t82.5 25.5q111 0 111 -110q0 -109 -111 -109q-55 0 -82.5 24.5t-27.5 84.5z" />
<glyph unicode="&#xb8;" horiz-adv-x="598" d="M66 -307q61 -23 133 -23q74 0 107.5 29t33.5 92q0 53 -24.5 110.5t-77.5 137.5h129q57 -90 79.5 -147.5t22.5 -114.5q0 -111 -61.5 -169.5t-176.5 -58.5q-37 0 -81 6.5t-84 16.5v121z" />
<glyph unicode="&#xb9;" horiz-adv-x="626" d="M39 1516l2 20l324 197h108v-1119h-151v942l-234 -120h-20z" />
<glyph unicode="&#xba;" horiz-adv-x="917" d="M92 1118q0 209 97.5 310.5t269.5 101.5q174 0 269 -101.5t95 -310.5t-95 -310t-269 -101q-172 0 -269.5 101t-97.5 310zM238 1118q0 -86 15 -142t44 -90t70 -48.5t92 -14.5q49 0 90 14.5t70.5 48.5t45 90t15.5 142t-15.5 142.5t-45 91t-70.5 49t-90 14.5q-51 0 -92 -14.5 t-70 -49t-44 -91t-15 -142.5z" />
<glyph unicode="&#xbb;" d="M90 61l309 488v8l-309 487h178l310 -487v-8l-310 -488h-178zM588 61l309 488v8l-309 487h178l309 -487v-8l-309 -488h-178z" />
<glyph unicode="&#xbc;" horiz-adv-x="1896" d="M53 1311l2 20l324 197h108v-1118h-151v942l-234 -121h-20zM459 0l649 1516h152l-648 -1516h-153zM1030 352l375 774l18 4l121 -18l8 -27l-358 -700h348l39 377h105v-377h149v-125h-149v-260h-152v260h-471z" />
<glyph unicode="&#xbd;" horiz-adv-x="1961" d="M53 1311l2 20l324 197h108v-1118h-151v942l-234 -121h-20zM459 0l649 1516h152l-648 -1516h-153zM1198 0v158q0 68 16.5 123t52.5 106t93 98t139 99q59 37 99 66.5t64 57t34 56.5t10 61q0 168 -205 168q-55 0 -120.5 -9t-133.5 -28l-20 131q88 20 160.5 30.5t136.5 10.5 q334 0 334 -290q0 -53 -13.5 -98.5t-43 -86.5t-79 -82t-120.5 -86q-63 -41 -107.5 -76.5t-71 -70.5t-39 -71t-12.5 -79v-57h488v-131h-662z" />
<glyph unicode="&#xbe;" horiz-adv-x="2033" d="M111 1518q53 12 113.5 19t113.5 7q176 0 267 -77.5t91 -223.5q0 -92 -43 -158.5t-123 -95.5q193 -61 193 -278q0 -152 -98.5 -234t-284.5 -82q-57 0 -116.5 7.5t-108.5 17.5v131h16q35 -8 89 -13.5t97 -5.5q129 0 192.5 50.5t63.5 144.5q0 98 -64.5 146.5t-199.5 48.5 h-86v118h86q233 0 234 187q0 182 -219 182q-72 0 -191 -23h-16zM592 0l649 1516h152l-648 -1516h-153zM1169 352l375 774l19 4l120 -18l9 -27l-359 -700h348l39 377h105v-377h149v-125h-149v-260h-152v260h-471z" />
<glyph unicode="&#xbf;" horiz-adv-x="872" d="M63 -20q0 104 36 177.5t94.5 125t130 81t143.5 48.5l4 297v39h125v-39l12 -387q-66 -16 -133 -39t-122.5 -60t-90.5 -93t-35 -138q0 -78 24.5 -130t65.5 -84t93.5 -45.5t107.5 -13.5q72 0 142.5 13.5t136.5 34.5l20 -136q-72 -23 -154.5 -38t-168.5 -15q-84 0 -162 20.5 t-137.5 68.5t-95.5 125t-36 188zM424 1016q0 47 28.5 74.5t77.5 27.5t76 -27.5t27 -74.5t-26.5 -75t-76.5 -28q-49 0 -77.5 28t-28.5 75z" />
<glyph unicode="&#xc0;" horiz-adv-x="1306" d="M14 0v12l510 1504h258l510 -1504v-12h-170l-155 455h-629l-154 -455h-170zM381 1929h180l152 -274l-133 -27zM383 602h541l-181 524l-81 252h-17l-84 -252z" />
<glyph unicode="&#xc1;" horiz-adv-x="1306" d="M14 0v12l510 1504h258l510 -1504v-12h-170l-155 455h-629l-154 -455h-170zM383 602h541l-181 524l-81 252h-17l-84 -252zM578 1640l151 289h180l-198 -301z" />
<glyph unicode="&#xc2;" horiz-adv-x="1306" d="M14 0v12l510 1504h258l510 -1504v-12h-170l-155 455h-629l-154 -455h-170zM338 1661v139l317 152l318 -152v-139l-318 149zM383 602h541l-181 524l-81 252h-17l-84 -252z" />
<glyph unicode="&#xc3;" horiz-adv-x="1306" d="M14 0v12l510 1504h258l510 -1504v-12h-170l-155 455h-629l-154 -455h-170zM283 1753q51 72 115.5 112t125.5 40q45 0 85 -13.5t78 -30t76 -29.5t81 -13q82 0 162 79l51 -51q-47 -74 -113.5 -113.5t-132.5 -39.5q-43 0 -82 12t-77 27.5t-76.5 29t-77.5 13.5 q-88 0 -166 -76zM383 602h541l-181 524l-81 252h-17l-84 -252z" />
<glyph unicode="&#xc4;" horiz-adv-x="1306" d="M14 0v12l510 1504h258l510 -1504v-12h-170l-155 455h-629l-154 -455h-170zM299 1782q0 106 111 106t110 -106q0 -59 -28.5 -85t-81.5 -26q-111 0 -111 111zM383 602h541l-181 524l-81 252h-17l-84 -252zM786 1782q0 106 111 106q53 0 83 -25.5t30 -80.5q0 -59 -30 -85 t-83 -26q-111 0 -111 111z" />
<glyph unicode="&#xc5;" horiz-adv-x="1306" d="M14 0v12l510 1504h258l510 -1504v-12h-170l-155 455h-629l-154 -455h-170zM383 602h541l-181 524l-81 252h-17l-84 -252zM424 1778q0 94 63.5 156.5t167.5 62.5t167 -62.5t63 -156.5t-64 -156.5t-166 -62.5q-104 0 -167.5 62t-63.5 157zM518 1778q0 -59 33.5 -95 t103.5 -36q66 0 101 35.5t35 95.5q0 61 -35 96t-101 35q-70 0 -103.5 -35t-33.5 -96z" />
<glyph unicode="&#xc6;" horiz-adv-x="1726" d="M10 0v14l574 1502h1032v-148h-647l26 -528h568v-148h-562l29 -545h606v-147h-778l-18 453h-486l-172 -453h-172zM414 604h420l-31 772h-94z" />
<glyph unicode="&#xc7;" horiz-adv-x="1136" d="M98 756q0 401 164 589.5t500 188.5q63 0 142 -7t159 -24v-147q-162 29 -281 28q-133 0 -228 -35.5t-156.5 -111.5t-90 -194.5t-28.5 -286.5q0 -328 117.5 -476.5t373.5 -148.5q27 0 65.5 2t79.5 7t80 11.5t68 12.5v-146q-59 -16 -137 -25t-150 -11q39 -63 53.5 -110.5 t14.5 -94.5q0 -111 -61.5 -169.5t-176.5 -58.5q-37 0 -81 6.5t-85 16.5v121q61 -23 133 -23q74 0 108 29t34 92q0 45 -17.5 92t-54.5 107q-276 33 -410.5 220t-134.5 546z" />
<glyph unicode="&#xc8;" horiz-adv-x="1187" d="M172 0v1516h905v-148h-731v-526h674v-148h-674v-547h750v-147h-924zM369 1929h180l151 -274l-133 -27z" />
<glyph unicode="&#xc9;" horiz-adv-x="1187" d="M172 0v1516h905v-148h-731v-526h674v-148h-674v-547h750v-147h-924zM547 1640l151 289h181l-199 -301z" />
<glyph unicode="&#xca;" horiz-adv-x="1187" d="M172 0v1516h905v-148h-731v-526h674v-148h-674v-547h750v-147h-924zM315 1661v139l318 152l317 -152v-139l-317 149z" />
<glyph unicode="&#xcb;" horiz-adv-x="1187" d="M172 0v1516h905v-148h-731v-526h674v-148h-674v-547h750v-147h-924zM274 1782q0 106 111 106t111 -106q0 -59 -29 -85t-82 -26q-111 0 -111 111zM762 1782q0 106 110 106q53 0 83 -25.5t30 -80.5q0 -59 -30 -85t-83 -26q-111 0 -110 111z" />
<glyph unicode="&#xcc;" horiz-adv-x="516" d="M2 1929h180l152 -274l-133 -27zM172 0v1516h174v-1516h-174z" />
<glyph unicode="&#xcd;" horiz-adv-x="516" d="M172 0v1516h174v-1516h-174zM186 1640l152 289h180l-199 -301z" />
<glyph unicode="&#xce;" horiz-adv-x="516" d="M-55 1661v139l317 152l318 -152v-139l-318 149zM172 0v1516h174v-1516h-174z" />
<glyph unicode="&#xcf;" horiz-adv-x="516" d="M-92 1782q0 106 110 106q111 0 111 -106q0 -59 -29 -85t-82 -26q-111 0 -110 111zM172 0v1516h174v-1516h-174zM395 1782q0 106 111 106q53 0 82.5 -25.5t29.5 -80.5q0 -59 -29.5 -85t-82.5 -26q-111 0 -111 111z" />
<glyph unicode="&#xd0;" horiz-adv-x="1419" d="M6 686v141h191v680q104 12 209.5 19.5t181.5 7.5q381 0 557 -187.5t176 -588.5q0 -205 -45 -353.5t-140.5 -243.5t-244 -141.5t-352.5 -46.5q-100 0 -190.5 6.5t-151.5 18.5v688h-191zM369 139q66 -10 115 -13t104 -3q287 0 421 150.5t134 484.5q0 332 -128 480t-411 148 q-53 0 -115.5 -4t-119.5 -12v-543h342v-141h-342v-547z" />
<glyph unicode="&#xd1;" horiz-adv-x="1511" d="M172 0v1516h154l733 -1059l110 -178h13v1237h159v-1516h-155l-735 1057l-109 178h-12v-1235h-158zM385 1753q51 72 115.5 112t126.5 40q45 0 85 -13.5t77.5 -30t75.5 -29.5t81 -13q82 0 162 79l51 -51q-47 -74 -113.5 -113.5t-132.5 -39.5q-43 0 -81.5 12t-76.5 27.5 t-77 29t-78 13.5q-88 0 -166 -76z" />
<glyph unicode="&#xd2;" horiz-adv-x="1439" d="M98 756q0 389 158 584.5t463 195.5t462.5 -196.5t157.5 -583.5t-157.5 -581.5t-462.5 -194.5t-463 194.5t-158 581.5zM276 756q0 -324 108 -475.5t335 -151.5t334.5 151.5t107.5 475.5t-108.5 477t-333.5 153t-334 -152.5t-109 -477.5zM449 1929h180l151 -274l-133 -27z " />
<glyph unicode="&#xd3;" horiz-adv-x="1439" d="M98 756q0 389 158 584.5t463 195.5t462.5 -196.5t157.5 -583.5t-157.5 -581.5t-462.5 -194.5t-463 194.5t-158 581.5zM276 756q0 -324 108 -475.5t335 -151.5t334.5 151.5t107.5 475.5t-108.5 477t-333.5 153t-334 -152.5t-109 -477.5zM643 1640l152 289h180l-199 -301z " />
<glyph unicode="&#xd4;" horiz-adv-x="1439" d="M98 756q0 389 158 584.5t463 195.5t462.5 -196.5t157.5 -583.5t-157.5 -581.5t-462.5 -194.5t-463 194.5t-158 581.5zM276 756q0 -324 108 -475.5t335 -151.5t334.5 151.5t107.5 475.5t-108.5 477t-333.5 153t-334 -152.5t-109 -477.5zM401 1661v139l318 152l317 -152 v-139l-317 149z" />
<glyph unicode="&#xd5;" horiz-adv-x="1439" d="M98 756q0 389 158 584.5t463 195.5t462.5 -196.5t157.5 -583.5t-157.5 -581.5t-462.5 -194.5t-463 194.5t-158 581.5zM276 756q0 -324 108 -475.5t335 -151.5t334.5 151.5t107.5 475.5t-108.5 477t-333.5 153t-334 -152.5t-109 -477.5zM346 1753q51 72 115.5 112 t126.5 40q45 0 85 -13.5t77.5 -30t75.5 -29.5t81 -13q82 0 162 79l51 -51q-47 -74 -113.5 -113.5t-132.5 -39.5q-43 0 -81.5 12t-76.5 27.5t-77 29t-78 13.5q-88 0 -166 -76z" />
<glyph unicode="&#xd6;" horiz-adv-x="1439" d="M98 756q0 389 158 584.5t463 195.5t462.5 -196.5t157.5 -583.5t-157.5 -581.5t-462.5 -194.5t-463 194.5t-158 581.5zM276 756q0 -324 108 -475.5t335 -151.5t334.5 151.5t107.5 475.5t-108.5 477t-333.5 153t-334 -152.5t-109 -477.5zM362 1782q0 106 111 106t111 -106 q0 -59 -29 -85t-82 -26q-111 0 -111 111zM850 1782q0 106 111 106q53 0 82.5 -25.5t29.5 -80.5q0 -59 -29.5 -85t-82.5 -26q-111 0 -111 111z" />
<glyph unicode="&#xd7;" horiz-adv-x="952" d="M113 485l272 275l-272 272l88 92l274 -274l273 274l92 -92l-275 -274l275 -273l-90 -90l-275 273l-274 -273z" />
<glyph unicode="&#xd8;" horiz-adv-x="1447" d="M63 0l168 219q-127 193 -127 537q0 389 158 584.5t463 195.5q258 0 414 -145l96 125h147l-168 -218q131 -197 132 -542q0 -387 -158 -581.5t-463 -194.5q-260 0 -416 145l-96 -125h-150zM283 756q0 -244 61 -391l692 892q-111 129 -311 129q-225 0 -333.5 -152 t-108.5 -478zM410 256q108 -127 315 -127q227 0 334.5 151.5t107.5 475.5q0 246 -65 395z" />
<glyph unicode="&#xd9;" horiz-adv-x="1464" d="M158 606v910h174v-906q0 -256 98 -367.5t301 -111.5q205 0 303.5 111.5t98.5 367.5v906h174v-910q0 -164 -33 -282.5t-102.5 -195.5t-178 -112.5t-262.5 -35.5t-262.5 35.5t-177 112.5t-101 195.5t-32.5 282.5zM461 1929h180l152 -274l-134 -27z" />
<glyph unicode="&#xda;" horiz-adv-x="1464" d="M158 606v910h174v-906q0 -256 98 -367.5t301 -111.5q205 0 303.5 111.5t98.5 367.5v906h174v-910q0 -164 -33 -282.5t-102.5 -195.5t-178 -112.5t-262.5 -35.5t-262.5 35.5t-177 112.5t-101 195.5t-32.5 282.5zM645 1640l152 289h180l-199 -301z" />
<glyph unicode="&#xdb;" horiz-adv-x="1464" d="M158 606v910h174v-906q0 -256 98 -367.5t301 -111.5q205 0 303.5 111.5t98.5 367.5v906h174v-910q0 -164 -33 -282.5t-102.5 -195.5t-178 -112.5t-262.5 -35.5t-262.5 35.5t-177 112.5t-101 195.5t-32.5 282.5zM410 1661v139l317 152l317 -152v-139l-317 149z" />
<glyph unicode="&#xdc;" horiz-adv-x="1464" d="M158 606v910h174v-906q0 -256 98 -367.5t301 -111.5q205 0 303.5 111.5t98.5 367.5v906h174v-910q0 -164 -33 -282.5t-102.5 -195.5t-178 -112.5t-262.5 -35.5t-262.5 35.5t-177 112.5t-101 195.5t-32.5 282.5zM373 1782q0 106 110 106q111 0 111 -106q0 -59 -29 -85 t-82 -26q-111 0 -110 111zM860 1782q0 106 111 106q53 0 82.5 -25.5t29.5 -80.5q0 -59 -29.5 -85t-82.5 -26q-111 0 -111 111z" />
<glyph unicode="&#xdd;" horiz-adv-x="1236" d="M4 1516h191l360 -709l55 -129h17l53 129l362 709h189l-524 -1004v-512h-175v508zM547 1640l151 289h181l-199 -301z" />
<glyph unicode="&#xde;" horiz-adv-x="1247" d="M172 0v1518h174v-250q47 4 94 7t95 3q334 0 487.5 -125t153.5 -393q0 -135 -37 -233.5t-116 -162t-200 -93t-288 -29.5q-88 0 -189 6v-248h-174zM346 406q14 -4 40 -6.5t55.5 -4.5t59 -3t52.5 -1q123 0 208 19.5t138 63.5t76.5 114.5t23.5 171.5q0 98 -24.5 167.5 t-78.5 113.5t-139 64.5t-206 20.5q-43 0 -103.5 -4t-101.5 -12v-704z" />
<glyph unicode="&#xdf;" horiz-adv-x="1263" d="M145 0v1217q0 233 115 338.5t350 105.5q236 0 350.5 -106.5t114.5 -337.5v-222h-188q-115 0 -177.5 -46t-62.5 -130q0 -49 18.5 -80.5t50.5 -52t75 -33t92 -24.5q68 -16 126 -38t101 -58.5t67.5 -92t24.5 -137.5q0 -152 -102.5 -239t-286.5 -87q-70 0 -148.5 11.5 t-193.5 36.5v133q184 -47 334 -47q113 0 171 48t58 136q0 92 -55 133t-156 64q-57 12 -117.5 27.5t-110.5 48t-82 91t-32 156.5q0 147 103.5 232.5t283.5 85.5h35v84q0 164 -69.5 232.5t-223.5 68.5t-223.5 -69t-69.5 -232v-1217h-172z" />
<glyph unicode="&#xe0;" horiz-adv-x="1032" d="M74 281q0 158 98 241.5t309 100.5l242 18v90q0 72 -12.5 120t-43 77.5t-79.5 42t-123 12.5q-63 0 -142 -9t-163 -26l-15 135q98 16 185.5 25.5t167.5 9.5q205 0 301 -86t96 -268v-764h-141l-19 137h-12q-88 -66 -179.5 -106.5t-185.5 -40.5q-137 0 -210.5 75.5 t-73.5 215.5zM248 295q0 -170 170 -170q37 0 75.5 10t78.5 27.5t78 40t73 45.5v280l-197 -18q-154 -16 -216 -63.5t-62 -151.5zM262 1647h184l144 -371l-125 -21z" />
<glyph unicode="&#xe1;" horiz-adv-x="1032" d="M74 281q0 158 98 241.5t309 100.5l242 18v90q0 72 -12.5 120t-43 77.5t-79.5 42t-123 12.5q-63 0 -142 -9t-163 -26l-15 135q98 16 185.5 25.5t167.5 9.5q205 0 301 -86t96 -268v-764h-141l-19 137h-12q-88 -66 -179.5 -106.5t-185.5 -40.5q-137 0 -210.5 75.5 t-73.5 215.5zM248 295q0 -170 170 -170q37 0 75.5 10t78.5 27.5t78 40t73 45.5v280l-197 -18q-154 -16 -216 -63.5t-62 -151.5zM461 1262l145 378h178l-200 -391z" />
<glyph unicode="&#xe2;" horiz-adv-x="1032" d="M74 281q0 158 98 241.5t309 100.5l242 18v90q0 72 -12.5 120t-43 77.5t-79.5 42t-123 12.5q-63 0 -142 -9t-163 -26l-15 135q98 16 185.5 25.5t167.5 9.5q205 0 301 -86t96 -268v-764h-141l-19 137h-12q-88 -66 -179.5 -106.5t-185.5 -40.5q-137 0 -210.5 75.5 t-73.5 215.5zM209 1292v140l317 149l318 -149v-140l-318 150zM248 295q0 -170 170 -170q37 0 75.5 10t78.5 27.5t78 40t73 45.5v280l-197 -18q-154 -16 -216 -63.5t-62 -151.5z" />
<glyph unicode="&#xe3;" horiz-adv-x="1032" d="M74 281q0 158 98 241.5t309 100.5l242 18v90q0 72 -12.5 120t-43 77.5t-79.5 42t-123 12.5q-63 0 -142 -9t-163 -26l-15 135q98 16 185.5 25.5t167.5 9.5q205 0 301 -86t96 -268v-764h-141l-19 137h-12q-88 -66 -179.5 -106.5t-185.5 -40.5q-137 0 -210.5 75.5 t-73.5 215.5zM139 1372q51 72 114.5 111t125.5 39q45 0 85 -14.5t78 -32t75.5 -31.5t78.5 -14q86 0 160 79l55 -53q-47 -74 -112.5 -112.5t-130.5 -38.5q-43 0 -83 14t-78 30.5t-77 31t-78 14.5q-41 0 -82 -20.5t-80 -57.5zM248 295q0 -170 170 -170q37 0 75.5 10t78.5 27.5 t78 40t73 45.5v280l-197 -18q-154 -16 -216 -63.5t-62 -151.5z" />
<glyph unicode="&#xe4;" horiz-adv-x="1032" d="M74 281q0 158 98 241.5t309 100.5l242 18v90q0 72 -12.5 120t-43 77.5t-79.5 42t-123 12.5q-63 0 -142 -9t-163 -26l-15 135q98 16 185.5 25.5t167.5 9.5q205 0 301 -86t96 -268v-764h-141l-19 137h-12q-88 -66 -179.5 -106.5t-185.5 -40.5q-137 0 -210.5 75.5 t-73.5 215.5zM197 1415q0 96 100 96q102 0 102 -96q0 -100 -102 -100q-100 0 -100 100zM248 295q0 -170 170 -170q37 0 75.5 10t78.5 27.5t78 40t73 45.5v280l-197 -18q-154 -16 -216 -63.5t-62 -151.5zM649 1415q0 96 101 96q100 0 100 -96q0 -100 -100 -100t-101 100z" />
<glyph unicode="&#xe5;" horiz-adv-x="1032" d="M74 281q0 158 98 241.5t309 100.5l242 18v90q0 72 -12.5 120t-43 77.5t-79.5 42t-123 12.5q-63 0 -142 -9t-163 -26l-15 135q98 16 185.5 25.5t167.5 9.5q205 0 301 -86t96 -268v-764h-141l-19 137h-12q-88 -66 -179.5 -106.5t-185.5 -40.5q-137 0 -210.5 75.5 t-73.5 215.5zM248 295q0 -170 170 -170q37 0 75.5 10t78.5 27.5t78 40t73 45.5v280l-197 -18q-154 -16 -216 -63.5t-62 -151.5zM289 1456q0 94 64.5 156.5t168.5 62.5t168 -62.5t64 -156.5t-64 -156.5t-168 -62.5t-168.5 62.5t-64.5 156.5zM389 1456q0 -59 33.5 -95 t99.5 -36t99.5 36t33.5 95t-33.5 95t-99.5 36t-99.5 -35.5t-33.5 -95.5z" />
<glyph unicode="&#xe6;" horiz-adv-x="1685" d="M74 281q0 156 98 239.5t309 100.5l244 18v106q0 133 -59.5 185.5t-200.5 52.5q-66 0 -144.5 -9t-158.5 -26l-17 135q100 16 187.5 25.5t165.5 9.5q270 0 331 -194h13q53 98 143 148t219 50q195 0 294 -122.5t99 -362.5q0 -49 -2 -82t-8 -61h-690q12 -375 332 -375 q72 0 152.5 14t166.5 47l11 -135q-76 -31 -168.5 -48t-176.5 -17q-272 0 -389 194l-10 2q-78 -51 -142.5 -87t-118.5 -57.5t-102.5 -31.5t-93.5 -10q-137 0 -210.5 75.5t-73.5 215.5zM248 295q0 -172 172 -172q68 0 145.5 35t173.5 100q-4 10 -7 48t-4 83t-2 85t-1 56 l-199 -18q-154 -14 -216 -63.5t-62 -153.5zM897 606h543q-6 205 -61.5 293t-178.5 88q-285 0 -303 -381z" />
<glyph unicode="&#xe7;" horiz-adv-x="909" d="M88 553q0 573 502 573q53 0 114.5 -7t120.5 -21v-146q-115 25 -219 25q-176 0 -259 -102.5t-83 -321.5q0 -223 81 -324.5t259 -101.5q55 0 106.5 6t114.5 19v-142q-43 -12 -101 -20t-116 -10q37 -63 51.5 -109.5t14.5 -93.5q0 -111 -61.5 -169.5t-176.5 -58.5 q-37 0 -81 6.5t-85 16.5v121q61 -23 133 -23q74 0 108 29t34 92q0 45 -16.5 92t-53.5 107q-387 57 -387 563z" />
<glyph unicode="&#xe8;" horiz-adv-x="1048" d="M92 537q0 287 121 437t352 150q397 0 398 -489q0 -47 -3.5 -82t-7.5 -64h-688q10 -193 89 -280.5t241 -87.5q74 0 154.5 15.5t162.5 45.5l11 -135q-74 -31 -166 -48t-178 -17q-240 0 -363 141t-123 414zM264 614h541q-6 201 -62.5 288t-181.5 87q-276 0 -297 -375z M272 1647h185l143 -371l-125 -21z" />
<glyph unicode="&#xe9;" horiz-adv-x="1048" d="M92 537q0 287 121 437t352 150q397 0 398 -489q0 -47 -3.5 -82t-7.5 -64h-688q10 -193 89 -280.5t241 -87.5q74 0 154.5 15.5t162.5 45.5l11 -135q-74 -31 -166 -48t-178 -17q-240 0 -363 141t-123 414zM264 614h541q-6 201 -62.5 288t-181.5 87q-276 0 -297 -375z M496 1262l145 378h178l-201 -391z" />
<glyph unicode="&#xea;" horiz-adv-x="1048" d="M92 537q0 287 121 437t352 150q397 0 398 -489q0 -47 -3.5 -82t-7.5 -64h-688q10 -193 89 -280.5t241 -87.5q74 0 154.5 15.5t162.5 45.5l11 -135q-74 -31 -166 -48t-178 -17q-240 0 -363 141t-123 414zM229 1292v140l318 149l317 -149v-140l-317 150zM264 614h541 q-6 201 -62.5 288t-181.5 87q-276 0 -297 -375z" />
<glyph unicode="&#xeb;" horiz-adv-x="1048" d="M92 537q0 287 121 437t352 150q397 0 398 -489q0 -47 -3.5 -82t-7.5 -64h-688q10 -193 89 -280.5t241 -87.5q74 0 154.5 15.5t162.5 45.5l11 -135q-74 -31 -166 -48t-178 -17q-240 0 -363 141t-123 414zM217 1415q0 96 100 96q102 0 103 -96q-1 -100 -103 -100 q-100 0 -100 100zM264 614h541q-6 201 -62.5 288t-181.5 87q-276 0 -297 -375zM670 1415q0 96 100 96t100 -96q0 -100 -100 -100t-100 100z" />
<glyph unicode="&#xec;" horiz-adv-x="466" d="M-31 1647h185l143 -371l-125 -21zM147 0v1106h172v-1106h-172z" />
<glyph unicode="&#xed;" horiz-adv-x="466" d="M147 0v1106h172v-1106h-172zM176 1262l146 378h178l-201 -391z" />
<glyph unicode="&#xee;" horiz-adv-x="468" d="M-72 1292v140l312 149l311 -149v-140l-311 150zM150 0v1106h172v-1106h-172z" />
<glyph unicode="&#xef;" horiz-adv-x="468" d="M-82 1415q0 96 100 96t101 -96q-1 -100 -101 -100t-100 100zM150 0v1106h172v-1106h-172zM356 1415q0 96 101 96q100 0 100 -96q0 -100 -100 -100t-101 100z" />
<glyph unicode="&#xf0;" horiz-adv-x="1163" d="M90 553q0 281 123 427t352 146q98 0 167 -36.5t120 -116.5q-41 178 -117 340l-305 -37v121l246 30q-70 121 -156 228h180q70 -94 131 -209l275 35v-123l-217 -27q72 -160 119 -346t47 -395q0 -299 -124 -453.5t-360 -154.5t-358.5 145t-122.5 426zM264 553 q0 -225 74.5 -328.5t234.5 -103.5t234 108.5t74 343.5q0 82 -16.5 157t-53.5 131.5t-96.5 90t-143.5 33.5q-160 0 -233.5 -103.5t-73.5 -328.5z" />
<glyph unicode="&#xf1;" horiz-adv-x="1155" d="M145 0v1106h144l12 -125h10q72 39 132.5 66.5t111.5 45t97 25.5t91 8q135 0 204 -72.5t69 -226.5v-827h-172v774q0 111 -39 158t-125 47q-74 0 -167 -32t-196 -87v-860h-172zM205 1372q51 72 114.5 111t124.5 39q45 0 85 -14.5t78 -32t76 -31.5t79 -14q86 0 160 79 l55 -53q-47 -74 -112.5 -112.5t-131.5 -38.5q-43 0 -83 14t-77.5 30.5t-76.5 31t-78 14.5q-41 0 -82 -20.5t-80 -57.5z" />
<glyph unicode="&#xf2;" d="M90 553q0 281 124 427t359 146q236 0 359 -146t123 -427t-123 -426t-359 -145t-359.5 145t-123.5 426zM264 553q0 -225 74.5 -328.5t234.5 -103.5t234 102.5t74 329.5t-74 329.5t-234 102.5t-234.5 -102.5t-74.5 -329.5zM295 1647h184l144 -371l-125 -21z" />
<glyph unicode="&#xf3;" d="M90 553q0 281 124 427t359 146q236 0 359 -146t123 -427t-123 -426t-359 -145t-359.5 145t-123.5 426zM264 553q0 -225 74.5 -328.5t234.5 -103.5t234 102.5t74 329.5t-74 329.5t-234 102.5t-234.5 -102.5t-74.5 -329.5zM500 1262l145 378h178l-200 -391z" />
<glyph unicode="&#xf4;" d="M90 553q0 281 124 427t359 146q236 0 359 -146t123 -427t-123 -426t-359 -145t-359.5 145t-123.5 426zM248 1292v140l317 149l318 -149v-140l-318 150zM264 553q0 -225 74.5 -328.5t234.5 -103.5t234 102.5t74 329.5t-74 329.5t-234 102.5t-234.5 -102.5t-74.5 -329.5z " />
<glyph unicode="&#xf5;" d="M90 553q0 281 124 427t359 146q236 0 359 -146t123 -427t-123 -426t-359 -145t-359.5 145t-123.5 426zM180 1372q51 72 114.5 111t125.5 39q45 0 85 -14.5t78 -32t75.5 -31.5t78.5 -14q86 0 160 79l55 -53q-47 -74 -112.5 -112.5t-130.5 -38.5q-43 0 -83 14t-78 30.5 t-77 31t-78 14.5q-41 0 -82 -20.5t-80 -57.5zM264 553q0 -225 74.5 -328.5t234.5 -103.5t234 102.5t74 329.5t-74 329.5t-234 102.5t-234.5 -102.5t-74.5 -329.5z" />
<glyph unicode="&#xf6;" d="M90 553q0 281 124 427t359 146q236 0 359 -146t123 -427t-123 -426t-359 -145t-359.5 145t-123.5 426zM236 1415q0 96 100 96q102 0 102 -96q0 -100 -102 -100q-100 0 -100 100zM264 553q0 -225 74.5 -328.5t234.5 -103.5t234 102.5t74 329.5t-74 329.5t-234 102.5 t-234.5 -102.5t-74.5 -329.5zM688 1415q0 96 100 96t101 -96q-1 -100 -101 -100t-100 100z" />
<glyph unicode="&#xf7;" horiz-adv-x="1052" d="M123 694v127h809v-127h-809zM438 426q0 47 25.5 70.5t68.5 23.5q41 0 68 -24.5t27 -69.5q0 -47 -27 -70.5t-68 -23.5q-43 0 -68.5 23.5t-25.5 70.5zM438 1077q0 47 25.5 72t68.5 25q41 0 68 -26t27 -71t-27 -69.5t-68 -24.5q-43 0 -68.5 24.5t-25.5 69.5z" />
<glyph unicode="&#xf8;" horiz-adv-x="1155" d="M51 0l139 168q-94 143 -94 385q0 279 122 426t360 147q195 0 315 -102l68 82h141l-137 -166q96 -143 96 -387q0 -279 -122 -425t-361 -146q-197 0 -316 102l-69 -84h-142zM270 553q0 -76 7.5 -138.5t23.5 -109.5l494 598q-76 82 -217 82q-166 0 -237 -104.5t-71 -327.5z M358 203q75 -82 220 -82q166 0 237.5 104.5t71.5 327.5q0 152 -35 250z" />
<glyph unicode="&#xf9;" horiz-adv-x="1153" d="M137 279v827h172v-778q0 -109 36 -153t126 -44q88 0 178 36t187 89v850h172v-1106h-144l-12 129h-8q-76 -39 -132.5 -67.5t-105.5 -47t-95 -26.5t-99 -8q-274 0 -275 299zM301 1647h184l144 -371l-125 -21z" />
<glyph unicode="&#xfa;" horiz-adv-x="1153" d="M137 279v827h172v-778q0 -109 36 -153t126 -44q88 0 178 36t187 89v850h172v-1106h-144l-12 129h-8q-76 -39 -132.5 -67.5t-105.5 -47t-95 -26.5t-99 -8q-274 0 -275 299zM506 1262l145 378h178l-200 -391z" />
<glyph unicode="&#xfb;" horiz-adv-x="1153" d="M137 279v827h172v-778q0 -109 36 -153t126 -44q88 0 178 36t187 89v850h172v-1106h-144l-12 129h-8q-76 -39 -132.5 -67.5t-105.5 -47t-95 -26.5t-99 -8q-274 0 -275 299zM256 1292v140l317 149l318 -149v-140l-318 150z" />
<glyph unicode="&#xfc;" horiz-adv-x="1153" d="M137 279v827h172v-778q0 -109 36 -153t126 -44q88 0 178 36t187 89v850h172v-1106h-144l-12 129h-8q-76 -39 -132.5 -67.5t-105.5 -47t-95 -26.5t-99 -8q-274 0 -275 299zM242 1415q0 96 100 96q102 0 102 -96q0 -100 -102 -100q-100 0 -100 100zM694 1415q0 96 101 96 q100 0 100 -96q0 -100 -100 -100t-101 100z" />
<glyph unicode="&#xfd;" horiz-adv-x="1089" d="M29 1087v19h180l287 -772l43 -146h10l43 146l295 772h176v-19l-604 -1538l-162 31v17l160 409zM492 1262l145 378h178l-201 -391z" />
<glyph unicode="&#xfe;" horiz-adv-x="1155" d="M145 -451v2106h172v-666q55 63 138.5 100t193.5 37q416 0 416 -557q0 -293 -136 -441t-397 -148q-51 0 -108 6t-107 14v-451h-172zM317 133q53 -10 111 -17t107 -7q180 0 267 101t87 345q0 240 -70.5 338t-218.5 98q-123 0 -203 -73.5t-80 -212.5v-572z" />
<glyph unicode="&#xff;" horiz-adv-x="1089" d="M29 1087v19h180l287 -772l43 -146h10l43 146l295 772h176v-19l-604 -1538l-162 31v17l160 409zM223 1415q0 96 101 96q102 0 102 -96q0 -100 -102 -100q-100 0 -101 100zM676 1415q0 96 100 96t101 -96q-1 -100 -101 -100t-100 100z" />
<glyph unicode="&#x152;" horiz-adv-x="1890" d="M98 756q0 385 163 579.5t468 194.5q53 0 105.5 -3t97.5 -11h846v-148h-676v-526h624v-144h-624v-551h694v-147h-864q-43 -6 -96.5 -10t-106.5 -4q-307 0 -469 193.5t-162 576.5zM274 756q0 -322 111.5 -471.5t349.5 -149.5q51 0 101.5 3t91.5 14v1212q-41 10 -91.5 13 t-101.5 3q-236 0 -348.5 -151.5t-112.5 -472.5z" />
<glyph unicode="&#x153;" horiz-adv-x="1841" d="M90 553q0 281 124 427t359 146q145 0 243.5 -66.5t146.5 -191.5h12q47 123 144.5 189.5t240.5 66.5q195 0 294 -122.5t99 -362.5q0 -47 -2 -81t-8 -62h-688q12 -375 327 -375q152 0 322 61l10 -135q-76 -31 -167 -48t-177 -17q-150 0 -251 64.5t-148 184.5h-10 q-49 -123 -146.5 -186t-241.5 -63q-236 0 -359.5 145t-123.5 426zM264 553q0 -225 74.5 -328.5t234.5 -103.5t234 102.5t74 329.5t-74 329.5t-234 102.5t-234.5 -102.5t-74.5 -329.5zM1055 608h540q-6 205 -61 293t-178 88q-283 0 -301 -381z" />
<glyph unicode="&#x178;" horiz-adv-x="1236" d="M4 1516h191l360 -709l55 -129h17l53 129l362 709h189l-524 -1004v-512h-175v508zM266 1782q0 106 111 106t110 -106q0 -59 -28.5 -85t-81.5 -26q-111 0 -111 111zM754 1782q0 106 110 106q53 0 83 -25.5t30 -80.5q0 -59 -30 -85t-83 -26q-111 0 -110 111z" />
<glyph unicode="&#x2c6;" horiz-adv-x="851" d="M100 1292v140l318 149l317 -149v-140l-317 150z" />
<glyph unicode="&#x2dc;" horiz-adv-x="956" d="M76 1372q51 72 114.5 111t124.5 39q45 0 85 -14.5t78 -32t76 -31.5t79 -14q86 0 160 79l55 -53q-47 -74 -112.5 -112.5t-131.5 -38.5q-43 0 -83 14t-77.5 30.5t-76.5 31t-78 14.5q-41 0 -82 -20.5t-80 -57.5z" />
<glyph unicode="&#x2000;" horiz-adv-x="998" />
<glyph unicode="&#x2001;" horiz-adv-x="1997" />
<glyph unicode="&#x2002;" horiz-adv-x="998" />
<glyph unicode="&#x2003;" horiz-adv-x="1997" />
<glyph unicode="&#x2004;" horiz-adv-x="665" />
<glyph unicode="&#x2005;" horiz-adv-x="499" />
<glyph unicode="&#x2006;" horiz-adv-x="332" />
<glyph unicode="&#x2007;" horiz-adv-x="332" />
<glyph unicode="&#x2008;" horiz-adv-x="249" />
<glyph unicode="&#x2009;" horiz-adv-x="399" />
<glyph unicode="&#x200a;" horiz-adv-x="110" />
<glyph unicode="&#x2010;" horiz-adv-x="854" d="M129 502v143h596v-143h-596z" />
<glyph unicode="&#x2011;" horiz-adv-x="854" d="M129 502v143h596v-143h-596z" />
<glyph unicode="&#x2012;" horiz-adv-x="854" d="M129 502v143h596v-143h-596z" />
<glyph unicode="&#x2013;" horiz-adv-x="1175" d="M135 502v143h905v-143h-905z" />
<glyph unicode="&#x2014;" horiz-adv-x="1525" d="M135 502v143h1256v-143h-1256z" />
<glyph unicode="&#x2018;" horiz-adv-x="405" d="M106 1260q0 100 32 209.5t85 191.5l90 -14q-33 -78 -51 -170.5t-18 -178.5q0 -53 9 -106t32 -113l-150 -16q-29 78 -29 197z" />
<glyph unicode="&#x2019;" horiz-adv-x="403" d="M96 1077q33 76 51.5 168t18.5 178q0 53 -9.5 106.5t-31.5 112.5l149 19q16 -43 23.5 -90t7.5 -107q0 -51 -8 -105t-23.5 -106.5t-38 -101.5t-49.5 -88z" />
<glyph unicode="&#x201a;" horiz-adv-x="417" d="M78 -270q33 76 51 168t18 178q0 53 -9 106.5t-32 112.5l150 18q16 -43 23.5 -90t7.5 -106q0 -51 -8.5 -105.5t-23.5 -106.5t-37.5 -101.5t-49.5 -88.5z" />
<glyph unicode="&#x201c;" horiz-adv-x="831" d="M106 1260q0 100 32 209.5t85 191.5l90 -14q-33 -78 -51 -170.5t-18 -178.5q0 -53 9 -106t32 -113l-150 -16q-29 78 -29 197zM535 1260q0 100 31.5 209.5t84.5 191.5l90 -14q-33 -78 -51 -170.5t-18 -178.5q0 -53 9 -106t32 -113l-150 -16q-29 78 -28 197z" />
<glyph unicode="&#x201d;" horiz-adv-x="829" d="M96 1077q33 76 51.5 168t18.5 178q0 53 -9.5 106.5t-31.5 112.5l149 19q16 -43 23.5 -90t7.5 -107q0 -51 -8 -105t-23.5 -106.5t-38 -101.5t-49.5 -88zM524 1077q33 76 51.5 168t18.5 178q0 53 -9.5 106.5t-31.5 112.5l149 19q16 -43 23.5 -90t7.5 -107q0 -51 -8 -105 t-23.5 -106.5t-38 -101.5t-49.5 -88z" />
<glyph unicode="&#x201e;" horiz-adv-x="843" d="M78 -270q33 76 51 168t18 178q0 53 -9 106.5t-32 112.5l150 18q16 -43 23.5 -90t7.5 -106q0 -51 -8.5 -105.5t-23.5 -106.5t-37.5 -101.5t-49.5 -88.5zM504 -270q33 76 51 168t18 178q0 53 -9 106.5t-32 112.5l150 18q16 -43 23.5 -90t7.5 -106q0 -51 -8.5 -105.5 t-23.5 -106.5t-37.5 -101.5t-49.5 -88.5z" />
<glyph unicode="&#x2022;" horiz-adv-x="649" d="M160 758q0 90 48 127t118 37q68 0 114.5 -37t46.5 -127t-46.5 -126t-114.5 -36q-70 0 -118 36t-48 126z" />
<glyph unicode="&#x2026;" horiz-adv-x="1339" d="M119 100q0 109 110 109q53 0 83 -27.5t30 -81.5q0 -106 -113 -106q-53 0 -81.5 26.5t-28.5 79.5zM567 100q0 109 111 109q53 0 83 -27.5t30 -81.5q0 -106 -113 -106q-53 0 -82 26.5t-29 79.5zM999 100q0 109 111 109q53 0 83 -27.5t30 -81.5q0 -106 -113 -106 q-53 0 -82 26.5t-29 79.5z" />
<glyph unicode="&#x202f;" horiz-adv-x="399" />
<glyph unicode="&#x2039;" horiz-adv-x="645" d="M70 549v8l309 487h180l-309 -487v-8l309 -488h-180z" />
<glyph unicode="&#x203a;" horiz-adv-x="645" d="M88 61l309 488v8l-309 487h178l309 -487v-8l-309 -488h-178z" />
<glyph unicode="&#x205f;" horiz-adv-x="499" />
<glyph unicode="&#x20ac;" horiz-adv-x="1214" d="M84 528v115h166q-2 27 -3 55.5t-1 57.5v59.5t2 56.5h-164v115h176q41 287 205 417t475 130q66 0 110 -5t83 -11l-52 -146q-23 4 -50 6t-62 2q-125 0 -217.5 -21.5t-157 -67.5t-102 -121.5t-56.5 -182.5h535l-37 -115h-510q-2 -29 -2 -56.5v-57.5v-59.5t2 -55.5h475 l-39 -115h-422q18 -106 56 -181t101.5 -123t155 -69.5t212.5 -21.5q29 0 66.5 3t78.5 9v-151q-55 -14 -160 -14q-311 4 -478 135t-210 413h-176z" />
<glyph unicode="&#x2122;" horiz-adv-x="1798" d="M63 1405v111h646v-111h-260v-750h-125v750h-261zM815 655v861h156l262 -658l264 658h154v-861h-117v652l-246 -617h-108l-246 615v-650h-119z" />
<glyph unicode="&#x25fc;" horiz-adv-x="1105" d="M0 0v1106h1106v-1106h-1106z" />
</font>
</defs>
</svg>
