<?xml version="1.0" standalone="no"?> <!DOCTYPE svg PUBLIC "-//W3C//DTD SVG 1.0//EN" "http://www.w3.org/TR/2001/REC-SVG-20010904/DTD/svg10.dtd" > <svg xmlns="http://www.w3.org/2000/svg" width="100%" height="100%">
<defs >
<font horiz-adv-x="588" ><font-face
    font-family="Encode Sans"
    units-per-em="1000"
    panose-1="2 0 0 0 0 0 0 0 0 0"
    ascent="1030"
    descent="-220"
    alphabetic="0" />
<missing-glyph horiz-adv-x="769" d="M95 1030H673V-220H95V1030ZM595 -146V957H172V-146H595Z" />
<glyph unicode=" " glyph-name="space" horiz-adv-x="235" />
<glyph unicode="!" glyph-name="exclam" horiz-adv-x="254" d="M130 1Q105 1 92 14T78 51Q78 75 91 88T130 102Q154 102 168 88T182 51Q182 28 168 15T130 1ZM99 198L83 730V740H171V730L154 198V185H99V198Z" />
<glyph unicode="&quot;" glyph-name="quotedbl" horiz-adv-x="380" d="M145 808V804L114 480H68V808H145ZM326 808V804L295 480H249V808H326Z" />
<glyph unicode="#" glyph-name="numbersign" horiz-adv-x="573" d="M336 224H205L187 0H121L139 224H50V287H144L157 452H50V515H162L181 740H247L228 515H360L379 740H445L426 515H522V452H421L408 287H522V224H403L385 0H318L336 224ZM210 287H341L355 452H223L210
287Z" />
<glyph unicode="$" glyph-name="dollar" horiz-adv-x="581" d="M262 -11Q214 -9 156 -2T45 20V96Q105 81 166 73T274 64Q361 64 406 96T452 188Q452 222 439 245T404 285T349 313T280 335Q221 351 179 370T110 414T70 473T57 551Q57 632 109 684T253 751V889H337V754Q374
752 416 746T509 729L506 654Q458 667 409 673T320 680Q241 680 196 646T150 553Q150 525 159 504T188 467T240 436T319 409Q368 395 409 379T481 339T527 279T544 193Q544 108 494 58T346 -6V-149H262V-11Z" />
<glyph unicode="%" glyph-name="percent" horiz-adv-x="967" d="M222 279Q133 279 87 338T41 515Q41 632 87 691T222 750Q311 750 357 691T403 515Q403 397 357 338T222 279ZM222 341Q279 341 306 383T334 515Q334 688 222 688Q110 688 110 515Q110 426 137 384T222
341ZM747 -11Q658 -11 612 48T565 225Q565 342 611 401T747 461Q835 461 881 402T928 225Q928 107 882 48T747 -11ZM747 51Q803 51 831 93T859 225Q859 314 831 356T747 399Q634 399 634 225Q634 136 662 94T747 51ZM615 740H696L351 0H271L615 740Z" />
<glyph unicode="&amp;" glyph-name="ampersand" horiz-adv-x="730" d="M326 -11Q262 -11 211 4T125 47T70 115T51 206Q51 275 85 324T185 400Q155 436 143 474T130 558Q130 653 190 703T364 753Q406 753 450 745T548 717L549 712L533 653H526Q437 686 371 686Q219
686 219 552Q219 517 231 487T269 427T336 368T437 306L554 241Q563 286 563 342V418H645V343Q645 263 627 200L713 153V145L678 85H670L598 126Q521 -11 326 -11ZM396 243Q345 272 305 298T236 350Q141 305 141 210Q141 138 191 97T330 56Q476 56 530 165L396
243Z" />
<glyph unicode="&apos;" glyph-name="quotesingle" horiz-adv-x="198" d="M145 808V804L114 480H68V808H145Z" />
<glyph unicode="(" glyph-name="parenleft" horiz-adv-x="299" d="M201 -160Q125 -49 85 82T45 354Q45 494 85 625T201 868H281V864Q204 755 162 625T120 354Q120 213 162 83T281 -156V-160H201V-160Z" />
<glyph unicode=")" glyph-name="parenright" horiz-adv-x="298" d="M19 -160V-156Q96 -47 137 83T179 354Q179 494 138 624T19 864V868H98Q174 757 213 626T253 354Q253 214 214 83T98 -160H19Z" />
<glyph unicode="*" glyph-name="asterisk" horiz-adv-x="495" d="M105 480L152 546L227 621L122 638L46 662L64 717L141 693L235 645L219 751V831H277V751L260 645L354 693L432 717L449 662L373 638L268 621L343 546L391 480L344 447L297 512L248 609L199 512L151
447L105 480Z" />
<glyph unicode="+" glyph-name="plus" horiz-adv-x="489" d="M47 401H213V571H276V401H443V339H276V169H213V339H47V401Z" />
<glyph unicode="," glyph-name="comma" horiz-adv-x="233" d="M33 -145L78 103H169L100 -155L33 -145Z" />
<glyph unicode="-" glyph-name="hyphen" horiz-adv-x="459" d="M67 316H392V244H67V316Z" />
<glyph unicode="." glyph-name="period" horiz-adv-x="236" d="M118 -4Q92 -4 77 10T61 51Q61 79 76 92T118 105Q144 105 159 92T175 51Q175 24 160 10T118 -4Z" />
<glyph unicode="/" glyph-name="slash" horiz-adv-x="387" d="M277 740H356L110 -120H31L277 740Z" />
<glyph unicode="0" glyph-name="zero" horiz-adv-x="663" d="M332 -11Q196 -11 126 84T55 369Q55 558 125 654T332 750Q467 750 537 654T608 369Q608 180 538 85T332 -11ZM332 64Q426 64 472 138T519 369Q519 526 473 600T332 675Q237 675 190 601T143 369Q143
213 189 139T332 64Z" />
<glyph unicode="1" glyph-name="one" horiz-adv-x="405" d="M219 637H215L43 552H35L22 605V611L241 740H308V0H219V637Z" />
<glyph unicode="2" glyph-name="two" horiz-adv-x="551" d="M46 99Q46 148 59 186T99 257T165 317T257 375Q336 418 371 457T406 547Q406 671 255 671Q214 671 169 664T78 645L68 722Q128 736 176 742T270 748Q494 748 494 553Q494 514 484 483T451 424T396 371T316
319Q225 266 182 221T139 120V76H497V2H46V99Z" />
<glyph unicode="3" glyph-name="three" horiz-adv-x="527" d="M208 -10Q170 -10 129 -7T56 4V75H60Q72 72 89 70T125 66T162 63T196 62Q383 62 383 207Q383 276 340 309T201 342H135V411H200Q284 411 323 444T363 544Q363 611 324 644T201 677Q176 677 140 673T61
663H56L55 734Q89 742 131 746T211 750Q329 750 391 700T454 552Q454 487 424 444T335 383V378Q402 364 438 318T474 200Q474 98 406 44T208 -10Z" />
<glyph unicode="4" glyph-name="four" horiz-adv-x="605" d="M23 225V232L271 750H275L357 738L359 729L120 250V246H379L404 492H466V246H576V174H466V0H378V174H41L23 225Z" />
<glyph unicode="5" glyph-name="five" horiz-adv-x="532" d="M208 -11Q133 -11 52 4V76H70Q105 69 137 66T199 62Q297 62 346 98T395 219Q395 258 381 284T338 327T263 350T153 359L77 361L69 369L96 740H454V666H165L150 433Q237 432 301 421T406 385T467 318T487
217Q487 155 467 112T410 42T322 2T208 -11Z" />
<glyph unicode="6" glyph-name="six" horiz-adv-x="618" d="M323 -11Q190 -11 122 73T54 328Q54 429 76 508T142 641T250 723T397 751Q428 751 460 747T530 734L523 663Q486 672 457 676T399 680Q284 680 220 605T145 383Q186 417 237 436T339 455Q394 455 438
440T514 397T561 329T578 238Q578 181 560 135T509 57T428 7T323 -11ZM323 391Q276 391 228 371T143 316Q145 183 188 121T323 59Q399 59 443 106T487 237Q487 311 444 351T323 391Z" />
<glyph unicode="7" glyph-name="seven" horiz-adv-x="491" d="M186 -14L112 0V14L377 661H30L24 732L31 740H455L472 693V668L207 -1L186 -14Z" />
<glyph unicode="8" glyph-name="eight" horiz-adv-x="616" d="M309 -5Q184 -5 118 44T52 190Q52 233 64 265T96 320T139 360T185 386Q161 398 141 413T106 450T83 498T75 561Q75 607 92 642T141 702T216 738T312 750Q364 750 406 738T478 702T524 643T540 560Q540
522 530 493T504 441T467 404T425 377Q455 365 480 350T524 312T554 261T565 194Q565 98 499 47T309 -5ZM254 358Q238 351 218 339T180 308T150 262T137 197Q137 128 184 95T309 61Q386 61 433 94T480 190Q480 226 466 251T428 293T371 322T301 344L254 358ZM157
557Q157 521 171 497T210 456T268 426T338 404L352 400Q367 408 386 420T421 452T448 496T459 556Q459 620 417 651T309 683Q242 683 200 652T157 557Z" />
<glyph unicode="9" glyph-name="nine" horiz-adv-x="619" d="M296 751Q429 751 497 667T565 412Q565 209 477 99T222 -11Q191 -11 159 -7T89 6L96 77Q133 68 162 64T220 60Q335 60 399 135T474 357Q433 323 382 304T280 285Q225 285 181 300T105 343T58 411T41
502Q41 559 59 605T110 683T191 733T296 751ZM296 349Q343 349 391 369T476 424Q474 557 431 619T296 681Q220 681 176 634T132 503Q132 429 175 389T296 349Z" />
<glyph unicode=":" glyph-name="colon" horiz-adv-x="244" d="M122 -4Q96 -4 81 10T65 51Q65 79 80 92T122 105Q148 105 163 92T179 51Q179 24 164 10T122 -4ZM122 435Q96 435 81 449T65 490Q65 518 80 531T122 544Q148 544 163 531T179 490Q179 463 164 449T122 435Z" />
<glyph unicode=";" glyph-name="semicolon" horiz-adv-x="269" d="M54 -145L99 103H190L121 -155L54 -145ZM140 435Q114 435 99 449T83 490Q83 518 98 531T140 544Q166 544 181 531T197 490Q197 463 182 449T140 435Z" />
<glyph unicode="&lt;" glyph-name="less" horiz-adv-x="515" d="M45 337V396L445 572V502L132 365L443 229V160L45 337Z" />
<glyph unicode="=" glyph-name="equal" horiz-adv-x="526" d="M70 281H457V216H70V281ZM70 495H457V431H70V495Z" />
<glyph unicode="&gt;" glyph-name="greater" horiz-adv-x="515" d="M73 229L382 365L71 502V572L470 396V337L73 160V229Z" />
<glyph unicode="?" glyph-name="question" horiz-adv-x="450" d="M148 198L143 387Q174 395 207 406T269 435T314 480T332 547Q332 584 320 609T287 650T241 671T187 678Q149 678 113 672T42 655L32 724Q70 735 112 742T200 750Q242 750 281 740T349 706T396 646T414
554Q414 503 396 467T350 406T286 366T215 342L213 198V180H148V198ZM182 -2Q158 -2 145 11T131 48Q131 72 144 85T182 99Q207 99 221 86T235 48Q235 25 221 12T182 -2Z" />
<glyph unicode="@" glyph-name="at" horiz-adv-x="885" d="M429 -135Q345 -135 276 -110T156 -35T78 89T50 261Q50 358 78 435T160 565T288 646T457 674Q548 674 617 649T733 577T804 461T828 306Q828 185 782 119T647 53Q594 53 568 78T536 142H531Q517 122 498
107T458 81T413 64T367 58Q301 58 266 105T230 232Q230 289 248 337T298 419T377 473T479 493Q511 493 548 485T628 460L589 250Q585 229 583 212T580 179Q580 144 595 126T649 107Q706 107 736 159T766 306Q766 453 689 534T457 615Q378 615 314 591T205 522T136
411T111 261Q111 177 134 114T199 9T299 -54T429 -76Q473 -76 523 -68T628 -42L648 -98Q588 -115 533 -125T429 -135ZM377 112Q403 112 428 122T474 151T511 197T533 260L562 425Q539 432 518 436T480 440Q438 440 403 424T343 381T304 315T290 232Q290 178 311
145T377 112Z" />
<glyph unicode="A" glyph-name="A" horiz-adv-x="681" d="M7 7L273 740H408L674 7V0H586L505 220H174L95 0H7V7ZM481 295L390 545L344 674H336L290 545L199 295H481Z" />
<glyph unicode="B" glyph-name="B" horiz-adv-x="665" d="M328 -10Q215 -10 89 5V735Q161 743 213 746T316 749Q463 749 528 702T593 549Q593 483 560 438T467 379V375Q540 361 579 316T618 195Q618 -10 328 -10ZM327 59Q430 59 479 93T528 201Q528 273 482 307T339
342H174V68Q220 59 327 59ZM334 408Q426 408 465 439T504 545Q504 618 462 649T320 680Q275 680 240 679T174 672V408H334Z" />
<glyph unicode="C" glyph-name="C" horiz-adv-x="589" d="M386 -9Q51 -9 51 368Q51 562 134 656T385 750Q419 750 462 746T550 733V657Q502 665 464 669T395 673Q264 673 203 601T142 369Q142 213 201 140T388 67Q404 67 425 68T469 72T513 78T550 86V11Q515 3
469 -3T386 -9Z" />
<glyph unicode="D" glyph-name="D" horiz-adv-x="729" d="M276 -11Q218 -11 168 -8T89 3V738Q115 740 143 742T199 745T252 748T297 749Q494 749 586 658T678 370Q678 271 655 199T582 81T457 12T276 -11ZM303 64Q377 64 430 81T518 136T569 232T586 370Q586 450
570 507T520 601T432 655T306 673Q280 673 244 671T178 666V73Q214 68 242 66T303 64Z" />
<glyph unicode="E" glyph-name="E" horiz-adv-x="616" d="M89 740H559V666H178V412H533V338H178V74H568V0H89V740Z" />
<glyph unicode="F" glyph-name="F" d="M89 740H554V666H178V404H521V330H178V0H89V740Z" />
<glyph unicode="G" glyph-name="G" horiz-adv-x="662" d="M394 -9Q51 -9 51 368Q51 750 404 750Q448 750 496 744T592 726V650Q532 664 491 668T411 673Q271 673 207 600T142 369Q142 214 203 141T395 67Q418 67 450 70T514 79V376H598V22Q573 15 546 9T492 -1T440
-7T394 -9Z" />
<glyph unicode="H" glyph-name="H" horiz-adv-x="767" d="M89 740H178V416H589V740H678V0H589V342H178V0H89V740Z" />
<glyph unicode="I" glyph-name="I" horiz-adv-x="267" d="M89 740H178V0H89V740Z" />
<glyph unicode="J" glyph-name="J" horiz-adv-x="266" d="M12 -160Q34 -111 49 -70T74 11T87 93T91 186V740H180V181Q180 131 175 88T157 1T124 -88T73 -189L12 -160Z" />
<glyph unicode="K" glyph-name="K" horiz-adv-x="668" d="M89 740H178V414H319L544 740H645L415 410L381 384V378L417 353L663 0H562L328 339H178V0H89V740Z" />
<glyph unicode="L" glyph-name="L" horiz-adv-x="529" d="M89 740H178V74H516V0H89V740Z" />
<glyph unicode="M" glyph-name="M" horiz-adv-x="931" d="M89 740H211L400 288L461 128H468L530 288L719 740H842V0H759V626H753L670 418L506 30H424L260 418L177 626H171V0H89V740Z" />
<glyph unicode="N" glyph-name="N" horiz-adv-x="780" d="M89 740H166L546 224L604 136H611V740H692V0H614L233 516L176 603L170 602V0H89V740Z" />
<glyph unicode="O" glyph-name="O" horiz-adv-x="747" d="M373 -10Q218 -10 135 85T51 369Q51 557 134 653T373 750Q529 750 612 654T696 369Q696 182 613 86T373 -10ZM373 66Q490 66 547 140T605 369Q605 675 373 675Q257 675 200 600T142 369Q142 214 199 140T373 66Z" />
<glyph unicode="P" glyph-name="P" horiz-adv-x="645" d="M89 735Q186 750 274 750Q449 750 530 689T611 494Q611 360 531 299T279 237Q256 237 232 238T178 241V0H89V735ZM291 310Q353 310 396 320T467 352T507 409T520 494Q520 542 507 576T467 633T395 665T289
676Q262 676 232 674T178 668V319Q186 317 199 316T228 313T260 311T291 310Z" />
<glyph unicode="Q" glyph-name="Q" horiz-adv-x="744" d="M665 -120Q489 -90 371 -52T182 42T80 177T49 369Q49 554 132 652T371 750Q528 750 611 652T695 369Q695 195 617 103T390 11V4Q434 -6 471 -13T542 -25T610 -35T683 -42L665 -120ZM371 65Q604 65 604
369Q604 675 371 675Q139 675 139 369Q139 65 371 65Z" />
<glyph unicode="R" glyph-name="R" horiz-adv-x="664" d="M367 276Q347 274 325 273T280 272Q260 272 232 273T178 278V0H89V735Q185 750 274 750Q450 750 530 693T611 511Q611 423 572 369T449 292L635 0H536L367 276ZM291 345Q353 345 396 354T467 383T507 434T520
511Q520 599 467 637T289 676Q263 676 232 674T178 668V354Q193 350 225 348T291 345Z" />
<glyph unicode="S" glyph-name="S" horiz-adv-x="580" d="M277 -11Q252 -11 223 -9T164 -3T102 7T43 20V96Q103 81 164 73T272 64Q359 64 404 96T450 188Q450 222 437 245T402 285T347 313T278 335Q219 351 177 370T108 414T68 473T55 551Q55 597 73 635T124 699T205
740T311 755Q353 755 400 749T507 729L504 654Q456 667 407 673T318 680Q239 680 194 646T148 553Q148 525 157 504T186 467T238 436T317 409Q366 395 407 379T479 339T525 279T542 193Q542 94 474 42T277 -11Z" />
<glyph unicode="T" glyph-name="T" horiz-adv-x="600" d="M255 665H17V740H584V665H345V0H255V665Z" />
<glyph unicode="U" glyph-name="U" horiz-adv-x="755" d="M378 -10Q299 -10 243 8T151 63T98 159T81 299V740H170V301Q170 175 222 121T378 66Q482 66 533 120T585 301V740H675V299Q675 218 658 160T605 64T513 8T378 -10Z" />
<glyph unicode="V" glyph-name="V" horiz-adv-x="679" d="M8 740H101L287 231L336 87H344L393 231L579 740H671L400 0H280L8 740Z" />
<glyph unicode="W" glyph-name="W" horiz-adv-x="1015" d="M19 740H113L244 236L278 96H284L321 236L462 740H555L693 236L729 96H737L771 236L904 740H998L794 0H675L540 487L511 620H505L476 487L339 0H220L19 740Z" />
<glyph unicode="X" glyph-name="X" horiz-adv-x="671" d="M278 382L19 740H122L318 462L332 436H340L354 462L551 740H652L391 378L668 0H566L351 299L338 323H331L318 299L106 0H4L278 382Z" />
<glyph unicode="Y" glyph-name="Y" horiz-adv-x="634" d="M273 247L3 740H99L283 398L312 332H321L350 398L534 740H630L362 250V0H273V247Z" />
<glyph unicode="Z" glyph-name="Z" horiz-adv-x="586" d="M33 67L431 658V663H46V740H541V675L144 82V76H552V0H33V67Z" />
<glyph unicode="[" glyph-name="bracketleft" horiz-adv-x="323" d="M88 868H291V804H160V-96H291V-160H88V868Z" />
<glyph unicode="\" glyph-name="backslash" horiz-adv-x="386" d="M31 740H108L354 -120H277L31 740Z" />
<glyph unicode="]" glyph-name="bracketright" horiz-adv-x="322" d="M32 -160V-96H163V804H32V868H235V-160H32Z" />
<glyph unicode="^" glyph-name="asciicircum" horiz-adv-x="477" d="M201 789H275L431 481H365L240 723H236L112 481H46L201 789Z" />
<glyph unicode="_" glyph-name="underscore" horiz-adv-x="590" d="M53 -59H538V-131H53V-59Z" />
<glyph unicode="`" glyph-name="grave" horiz-adv-x="258" d="M136 615L36 806H131L202 625L136 615Z" />
<glyph unicode="a" glyph-name="a" horiz-adv-x="533" d="M183 -5Q113 -5 76 31T39 137Q39 215 88 256T245 305L374 315V354Q374 389 368 412T346 450T304 471T239 477Q205 477 166 473T80 460L73 527Q126 537 169 541T257 546Q362 546 412 503T462 369V0H389L380
68H374Q325 33 278 14T183 -5ZM215 63Q251 63 292 80T374 123V259L269 250Q191 243 160 220T128 144Q128 63 215 63Z" />
<glyph unicode="b" glyph-name="b" horiz-adv-x="604" d="M288 -11Q242 -11 190 -6T75 12V808H163V480Q193 514 235 532T333 550Q442 550 499 483T556 276Q556 136 486 64T288 -11ZM287 56Q378 56 422 105T467 271Q467 383 430 430T313 478Q283 478 256 470T209
448T176 412T163 363V66Q188 62 220 59T287 56Z" />
<glyph unicode="c" glyph-name="c" horiz-adv-x="475" d="M304 -9Q47 -9 47 269Q47 549 304 549Q335 549 369 546T432 535V461Q402 468 372 471T313 474Q222 474 179 425T136 270Q136 163 177 115T311 66Q344 66 371 68T432 78V5Q408 -1 373 -5T304 -9Z" />
<glyph unicode="d" glyph-name="d" horiz-adv-x="604" d="M271 -10Q161 -10 104 57T47 266Q47 338 66 391T120 479T204 532T314 550Q349 550 381 547T441 540V808H528V0H452L444 66H438Q382 -10 271 -10ZM291 60Q321 60 348 68T396 92T429 130T441 182V471Q414
476 382 479T313 482Q225 482 181 433T137 270Q137 157 174 109T291 60Z" />
<glyph unicode="e" glyph-name="e" horiz-adv-x="544" d="M298 -9Q174 -9 111 59T48 263Q48 402 110 475T292 549Q499 549 499 308Q499 262 492 238H136Q141 144 182 103T309 62Q347 62 390 69T475 90L480 23Q440 8 392 0T298 -9ZM290 481Q146 481 136 300H418Q418
398 387 439T290 481Z" />
<glyph unicode="f" glyph-name="f" horiz-adv-x="378" d="M133 464H17V540H134V567Q134 638 145 684T185 758T262 798T385 813L390 747Q338 744 305 736T254 711T228 665T221 588V540H364V464H221V0H133V464Z" />
<glyph unicode="g" glyph-name="g" horiz-adv-x="604" d="M266 -219Q218 -219 171 -213T86 -196L92 -127Q129 -137 171 -143T255 -150Q297 -150 332 -141T392 -109T431 -49T445 43V78H440Q383 0 271 0Q162 0 105 65T47 269Q47 340 66 392T120 480T204 532T314
550Q362 550 415 544T529 521V53Q529 -27 508 -79T452 -162T368 -206T266 -219ZM291 69Q321 69 348 77T396 101T429 139T441 191V471Q414 476 382 479T313 482Q225 482 181 434T137 274Q137 164 174 117T291 69Z" />
<glyph unicode="h" glyph-name="h" horiz-adv-x="605" d="M76 808H163V478Q240 515 292 532T391 550Q460 550 496 514T533 402V0H445V373Q445 429 424 452T358 476Q320 476 270 460T163 417V0H76V808Z" />
<glyph unicode="i" glyph-name="i" horiz-adv-x="241" d="M120 652Q66 652 66 705Q66 759 120 759Q176 759 176 705Q176 652 120 652ZM77 540H164V0H77V540Z" />
<glyph unicode="j" glyph-name="j" horiz-adv-x="238" d="M117 652Q88 652 76 665T63 705Q63 733 75 746T117 759Q172 759 172 705Q172 652 117 652ZM9 -199Q27 -163 39 -127T60 -52T73 31T77 128Q77 132 77 161T77 232T77 323T77 416T77 495T76 540H163V86Q161
3 138 -74T73 -220L9 -199Z" />
<glyph unicode="k" glyph-name="k" horiz-adv-x="552" d="M76 808H163V308H256L437 540H536L335 287L317 279V275L336 266L552 0H453L254 247H163V0H76V808Z" />
<glyph unicode="l" glyph-name="l" horiz-adv-x="243" d="M78 808H166V0H78V808Z" />
<glyph unicode="m" glyph-name="m" horiz-adv-x="900" d="M76 540H148L154 477H159Q223 515 268 532T355 550Q452 550 484 476H488Q553 516 599 533T686 550Q755 550 791 514T828 402V0H741V372Q741 428 720 451T653 475Q622 475 583 460T497 419V0H409V372Q409
428 388 451T321 475Q289 475 249 459T163 417V0H76V540Z" />
<glyph unicode="n" glyph-name="n" horiz-adv-x="605" d="M76 540H149L155 477H160Q200 496 232 510T292 533T344 546T391 550Q460 550 496 514T533 402V0H445V373Q445 429 424 452T358 476Q320 476 270 460T164 417V0H76V540Z" />
<glyph unicode="o" glyph-name="o" horiz-adv-x="594" d="M297 -10Q175 -10 111 62T47 270Q47 407 111 478T297 550Q419 550 483 479T547 270Q547 133 483 62T297 -10ZM297 62Q381 62 419 111T458 270Q458 379 420 428T297 478Q214 478 175 429T136 270Q136 161
175 112T297 62Z" />
<glyph unicode="p" glyph-name="p" horiz-adv-x="605" d="M76 540H152L159 476H165Q224 550 334 550Q443 550 500 484T557 276Q557 136 487 63T289 -10Q254 -10 222 -7T164 -1V-220H76V540ZM291 57Q379 57 423 106T468 271Q468 384 431 432T313 480Q283 480 256
472T209 448T176 410T164 359V68Q189 64 222 61T291 57Z" />
<glyph unicode="q" glyph-name="q" horiz-adv-x="604" d="M444 66Q413 28 369 9T271 -10Q47 -10 47 266Q47 404 117 477T315 550Q372 550 430 544T529 529V-220H444V66ZM291 60Q323 60 350 69T398 94T429 133T441 184V472Q404 477 373 479T313 482Q221 482 179
432T136 271Q136 160 172 110T291 60Z" />
<glyph unicode="r" glyph-name="r" horiz-adv-x="391" d="M76 540H149L155 466H159Q215 497 262 519T351 549H379V466H348Q303 460 256 443T164 402V0H76V540Z" />
<glyph unicode="s" glyph-name="s" horiz-adv-x="471" d="M228 -11Q192 -11 150 -6T45 12V84Q95 72 139 65T224 57Q284 57 314 80T345 145Q345 168 337 183T314 210T278 227T232 239Q201 245 169 252T111 276T69 321T52 398Q52 471 104 512T251 553Q268 553 284
552T318 549T358 543T410 533L406 460Q355 471 321 476T258 482Q137 482 137 400Q137 376 146 361T173 335T213 319T263 308Q299 301 329 291T382 262T417 217T430 149Q430 74 378 32T228 -11Z" />
<glyph unicode="t" glyph-name="t" horiz-adv-x="399" d="M284 -9Q207 -9 168 30T128 144V463H16V540H133L146 675L215 684V540H375V463H216V162Q216 111 238 87T309 63Q324 63 342 65T380 74V4Q357 -2 332 -5T284 -9Z" />
<glyph unicode="u" glyph-name="u" horiz-adv-x="605" d="M209 -10Q72 -10 72 138V540H160V166Q160 112 179 89T243 65Q291 65 342 85T441 130V540H529V0H456L450 66H446Q405 46 374 32T317 8T265 -5T209 -10Z" />
<glyph unicode="v" glyph-name="v" horiz-adv-x="557" d="M19 528V540H110L250 152L274 70H284L308 152L449 540H539V528L335 0H221L19 528Z" />
<glyph unicode="w" glyph-name="w" horiz-adv-x="795" d="M23 534V540H109L206 168L223 89H230L249 168L354 540H439L548 168L568 89H575L593 168L685 540H770V534L625 0H525L417 363L400 435H394L377 363L273 0H174L23 534Z" />
<glyph unicode="x" glyph-name="x" horiz-adv-x="553" d="M13 12L217 280L24 533V540H117L241 374L275 326H280L314 374L435 540H529V533L336 277L540 12V0H448L316 177L278 231H272L236 177L105 0H13V12Z" />
<glyph unicode="y" glyph-name="y" horiz-adv-x="565" d="M155 -205L154 -196L237 5L16 530V540H110L255 172L279 96H285L309 172L460 540H551V530L235 -220L155 -205Z" />
<glyph unicode="z" glyph-name="z" horiz-adv-x="492" d="M37 59L333 462V467H47V540H446V485L152 80V73H456V1H37V59Z" />
<glyph unicode="{" glyph-name="braceleft" horiz-adv-x="358" d="M33 392Q69 392 88 418T108 496V746Q108 813 132 840T216 868Q226 868 242 868T274 866T304 865T323 863V804H230Q204 804 193 794T182 759V478Q182 431 162 397T107 355Q142 348 162 315T182
235V-49Q182 -73 193 -83T230 -94H323V-153Q318 -154 305 -155T276 -156T243 -157T218 -158Q158 -158 133 -131T108 -35V217Q108 268 89 294T33 320V392Z" />
<glyph unicode="|" glyph-name="bar" horiz-adv-x="258" d="M171 808V-220H88V808H171Z" />
<glyph unicode="}" glyph-name="braceright" horiz-adv-x="358" d="M325 320Q251 320 251 217V-35Q251 -103 226 -130T141 -158Q132 -158 116 -158T84 -157T53 -155T35 -153V-94H129Q155 -94 166 -84T177 -49V235Q177 281 196 314T251 355Q216 363 197 397T177
478V759Q177 783 166 793T129 804H35V863Q39 864 53 864T83 866T116 867T142 868Q202 868 226 841T251 746V496Q251 392 325 392V320Z" />
<glyph unicode="~" glyph-name="asciitilde" horiz-adv-x="644" d="M62 285Q89 313 110 332T150 363T189 379T229 384Q259 384 282 373T327 347T370 321T416 309Q448 309 479 328T528 377L583 346Q571 326 554 307T515 271T471 246T422 236Q389 236 364 248T318
274T277 300T236 312Q205 312 177 296T111 242L62 285Z" />
</font>
</defs>
</svg>
